<svg width="28" height="35" viewBox="0 0 28 35" xmlns="http://www.w3.org/2000/svg"><g fill="none" fill-rule="evenodd"><path fill="#262B44" d="M16.313 20.014h5.484v-5.483h-5.484z"/><path fill="#E5BD4E" d="M16.573 6.018h1.5v-1.5h-1.5zM7.569 6.018H9.07v-1.5H7.569zM16.573 4.518h1.5V3.017h-1.5zM7.569 4.518H9.07V3.017H7.569z"/><path fill="#FEAE34" d="M9.07 34.529h7.503v-1.5H9.07zM16.573 33.029h3.001v-1.501h-3.001zM6.068 33.029H9.07v-1.501H6.068zM19.574 31.528h1.5v-1.5h-1.5zM4.568 31.528h1.5v-1.5h-1.5zM21.074 30.028h1.501v-1.501h-1.501zM3.067 30.028h1.501v-1.501H3.067z"/><path fill="#FEAE34" d="M22.575 28.527h1.5v-3.001h-1.5zM1.567 28.527h1.5v-3.001h-1.5zM.066 25.526h1.501v-7.503H.066zM25.576 18.023h-1.501v7.503h1.501v-1.501h1.501v-4.501h-1.501v-1.501M22.575 18.023h1.5v-3.001h-1.5zM3.067 15.022h-1.5v3.001h1.5v-3.001M21.074 15.022h1.501v-1.501h-1.501zM3.067 15.022h1.501v-1.501H3.067zM19.574 13.521h1.5v-1.5h-1.5zM4.568 13.521h1.5v-1.5h-1.5zM16.573 12.021h3.001V10.52h-3.001zM6.068 12.021H9.07V10.52H6.068zM16.573 10.52v-1.5h-1.501V7.519h1.501V6.018H9.07v1.501h1.5V9.02h-1.5v1.5h7.503"/><path fill="#E5BD4E" d="M16.573 3.017h1.5v-1.5h-1.5zM7.569 3.017H9.07v-1.5H7.569zM9.07 1.517h7.503V.016H9.07z"/><path d="M21.074 22.525h-9.003V13.52h1.5v7.503h7.503v1.5zm0-4.502v-1.5h1.5v-1.501h-1.5v-1.5h-3.001V12.02h-1.5v-1.5H13.57v1.5h-1.5v-1.5H9.07v1.5H7.569v1.5H4.568v1.5h-1.5v1.501h1.5v1.501H1.567v3.001h1.5v1.5h-1.5v3.002h3.001v1.5h-1.5v1.501h1.5v1.5h3.001v1.501h1.5v1.5h3.002v-1.5h1.5v1.5h3.002v-1.5h1.5v-1.5h3.001v-1.501h1.5v-1.5h-1.5v-1.501h3.001v-3.001h-1.5v-1.5h1.5v-3.002h-3z" fill="#ECF0F1"/><path fill="#5A6988" d="M12.071 33.029h1.5v-1.501h-1.5zM18.073 31.528h1.501v-1.5h-1.501zM6.068 31.528h1.501v-1.5H6.068zM21.074 27.026h1.501v-1.5h-1.501zM3.067 27.026h1.501v-1.5H3.067zM22.575 22.525h1.5v-1.501h-1.5zM21.074 22.525v-1.501h-7.503v-7.503h-1.5v9.004h9.003M3.067 21.024h-1.5v1.501h1.5v-1.501M21.074 18.023h1.501v-1.501h-1.501zM3.067 18.023h1.501v-1.501H3.067zM18.073 13.521h1.501v-1.5h-1.501zM6.068 13.521h1.501v-1.5H6.068zM12.071 12.021h1.5V10.52h-1.5z"/></g></svg>