<?xml version="1.0" encoding="UTF-8"?>
<svg width="243px" height="37px" viewBox="0 0 243 37" version="1.1" xmlns="http://www.w3.org/2000/svg" xmlns:xlink="http://www.w3.org/1999/xlink">
    <!-- Generator: Sketch 54.1 (76490) - https://sketchapp.com -->
    <title>heart</title>
    <desc>Created with Sketch.</desc>
    <g id="Page-1" stroke="none" stroke-width="1" fill="none" fill-rule="evenodd">
        <g id="top-results" transform="translate(-391.000000, -100.000000)">
            <g id="heart" transform="translate(391.000000, 100.000000)">
                <g id="Group">
                    <polyline id="Fill-467" fill="#000000" points="35.902464 3.14252194 25.131062 3.14252194 25.131062 6.49796984 21.542804 6.49796984 21.542804 9.85590325 17.951232 9.85590325 17.951232 6.49796984 14.362974 6.49796984 14.362974 3.14252194 3.59157201 3.14252194 3.59157201 6.49796984 0 6.49796984 0 19.928875 3.59157201 19.928875 3.59157201 23.2868084 7.18314401 23.2868084 7.18314401 26.6439133 10.771402 26.6439133 10.771402 29.9993612 14.362974 29.9993612 14.362974 33.3572946 17.951232 33.3572946 17.951232 36.715228 21.542804 36.715228 21.542804 33.3572946 25.131062 33.3572946 25.131062 29.9993612 28.722634 29.9993612 28.722634 26.6439133 32.310892 26.6439133 32.310892 23.2868084 35.902464 23.2868084 35.902464 19.928875 39.494036 19.928875 39.494036 6.49796984 35.902464 6.49796984 35.902464 3.14252194"></polyline>
                    <polyline id="Fill-468" fill="#780001" points="35.902464 3.35461939 35.902464 0 28.722634 0 28.722634 3.35461939 32.310892 3.35461939 32.310892 6.7125528 35.902464 6.7125528 35.902464 13.4275911 32.310892 13.4275911 32.310892 16.7855245 28.722634 16.7855245 28.722634 20.1434579 25.131062 20.1434579 25.131062 23.5013914 21.542804 23.5013914 21.542804 26.8560108 17.951232 26.8560108 17.951232 33.5718776 21.542804 33.5718776 21.542804 30.2139442 25.131062 30.2139442 25.131062 26.8560108 28.722634 26.8560108 28.722634 23.5013914 32.310892 23.5013914 32.310892 20.1434579 35.902464 20.1434579 35.902464 16.7855245 39.494036 16.7855245 39.494036 3.35461939 35.902464 3.35461939"></polyline>
                    <polyline id="Fill-469" fill="#DD0007" points="32.310892 6.7125528 32.310892 3.35461939 28.722634 3.35461939 28.722634 0 25.131062 0 25.131062 3.35461939 21.542804 3.35461939 21.542804 6.7125528 17.951232 6.7125528 17.951232 3.35461939 14.362974 3.35461939 14.362974 6.7125528 7.18314401 6.7125528 7.18314401 16.7855245 10.771402 16.7855245 10.771402 26.8560108 14.362974 26.8560108 14.362974 30.2139442 17.951232 30.2139442 17.951232 26.8560108 21.542804 26.8560108 21.542804 23.5013914 25.131062 23.5013914 25.131062 20.1434579 28.722634 20.1434579 28.722634 16.7855245 32.310892 16.7855245 32.310892 13.4275911 35.902464 13.4275911 35.902464 6.7125528 32.310892 6.7125528"></polyline>
                    <polyline id="Fill-471" fill="#FFCCD3" points="10.771402 3.35461939 7.18314401 3.35461939 7.18314401 6.7125528 14.362974 6.7125528 14.362974 3.35461939 10.771402 3.35461939"></polyline>
                    <polyline id="Fill-472" fill="#FFCCD3" points="3.59157201 10.0704862 3.59157201 13.4275911 7.18314401 13.4275911 7.18314401 6.7125528 3.59157201 6.7125528 3.59157201 10.0704862"></polyline>
                    <polyline id="Fill-473" fill="#FF5A6A" points="3.59157201 6.7125528 7.18314401 6.7125528 7.18314401 3.35461939 10.771402 3.35461939 10.771402 0 3.59157201 0 3.59157201 3.35461939 0 3.35461939 0 16.7855245 3.59157201 16.7855245 3.59157201 20.1434579 7.18314401 20.1434579 7.18314401 23.5013914 10.771402 23.5013914 10.771402 16.7855245 7.18314401 16.7855245 7.18314401 13.4275911 3.59157201 13.4275911 3.59157201 6.7125528"></polyline>
                </g>
                <g id="Group-Copy" transform="translate(50.163539, 0.000000)">
                    <polyline id="Fill-467" fill="#000000" points="35.902464 3.14252194 25.131062 3.14252194 25.131062 6.49796984 21.542804 6.49796984 21.542804 9.85590325 17.951232 9.85590325 17.951232 6.49796984 14.362974 6.49796984 14.362974 3.14252194 3.59157201 3.14252194 3.59157201 6.49796984 0 6.49796984 0 19.928875 3.59157201 19.928875 3.59157201 23.2868084 7.18314401 23.2868084 7.18314401 26.6439133 10.771402 26.6439133 10.771402 29.9993612 14.362974 29.9993612 14.362974 33.3572946 17.951232 33.3572946 17.951232 36.715228 21.542804 36.715228 21.542804 33.3572946 25.131062 33.3572946 25.131062 29.9993612 28.722634 29.9993612 28.722634 26.6439133 32.310892 26.6439133 32.310892 23.2868084 35.902464 23.2868084 35.902464 19.928875 39.494036 19.928875 39.494036 6.49796984 35.902464 6.49796984 35.902464 3.14252194"></polyline>
                    <polyline id="Fill-468" fill="#780001" points="35.902464 3.35461939 35.902464 0 28.722634 0 28.722634 3.35461939 32.310892 3.35461939 32.310892 6.7125528 35.902464 6.7125528 35.902464 13.4275911 32.310892 13.4275911 32.310892 16.7855245 28.722634 16.7855245 28.722634 20.1434579 25.131062 20.1434579 25.131062 23.5013914 21.542804 23.5013914 21.542804 26.8560108 17.951232 26.8560108 17.951232 33.5718776 21.542804 33.5718776 21.542804 30.2139442 25.131062 30.2139442 25.131062 26.8560108 28.722634 26.8560108 28.722634 23.5013914 32.310892 23.5013914 32.310892 20.1434579 35.902464 20.1434579 35.902464 16.7855245 39.494036 16.7855245 39.494036 3.35461939 35.902464 3.35461939"></polyline>
                    <polyline id="Fill-469" fill="#DD0007" points="32.310892 6.7125528 32.310892 3.35461939 28.722634 3.35461939 28.722634 0 25.131062 0 25.131062 3.35461939 21.542804 3.35461939 21.542804 6.7125528 17.951232 6.7125528 17.951232 3.35461939 14.362974 3.35461939 14.362974 6.7125528 7.18314401 6.7125528 7.18314401 16.7855245 10.771402 16.7855245 10.771402 26.8560108 14.362974 26.8560108 14.362974 30.2139442 17.951232 30.2139442 17.951232 26.8560108 21.542804 26.8560108 21.542804 23.5013914 25.131062 23.5013914 25.131062 20.1434579 28.722634 20.1434579 28.722634 16.7855245 32.310892 16.7855245 32.310892 13.4275911 35.902464 13.4275911 35.902464 6.7125528 32.310892 6.7125528"></polyline>
                    <polyline id="Fill-471" fill="#FFCCD3" points="10.771402 3.35461939 7.18314401 3.35461939 7.18314401 6.7125528 14.362974 6.7125528 14.362974 3.35461939 10.771402 3.35461939"></polyline>
                    <polyline id="Fill-472" fill="#FFCCD3" points="3.59157201 10.0704862 3.59157201 13.4275911 7.18314401 13.4275911 7.18314401 6.7125528 3.59157201 6.7125528 3.59157201 10.0704862"></polyline>
                    <polyline id="Fill-473" fill="#FF5A6A" points="3.59157201 6.7125528 7.18314401 6.7125528 7.18314401 3.35461939 10.771402 3.35461939 10.771402 0 3.59157201 0 3.59157201 3.35461939 0 3.35461939 0 16.7855245 3.59157201 16.7855245 3.59157201 20.1434579 7.18314401 20.1434579 7.18314401 23.5013914 10.771402 23.5013914 10.771402 16.7855245 7.18314401 16.7855245 7.18314401 13.4275911 3.59157201 13.4275911 3.59157201 6.7125528"></polyline>
                </g>
                <g id="Group-Copy-2" transform="translate(100.978552, 0.000000)">
                    <polyline id="Fill-467" fill="#000000" points="35.902464 3.14252194 25.131062 3.14252194 25.131062 6.49796984 21.542804 6.49796984 21.542804 9.85590325 17.951232 9.85590325 17.951232 6.49796984 14.362974 6.49796984 14.362974 3.14252194 3.59157201 3.14252194 3.59157201 6.49796984 0 6.49796984 0 19.928875 3.59157201 19.928875 3.59157201 23.2868084 7.18314401 23.2868084 7.18314401 26.6439133 10.771402 26.6439133 10.771402 29.9993612 14.362974 29.9993612 14.362974 33.3572946 17.951232 33.3572946 17.951232 36.715228 21.542804 36.715228 21.542804 33.3572946 25.131062 33.3572946 25.131062 29.9993612 28.722634 29.9993612 28.722634 26.6439133 32.310892 26.6439133 32.310892 23.2868084 35.902464 23.2868084 35.902464 19.928875 39.494036 19.928875 39.494036 6.49796984 35.902464 6.49796984 35.902464 3.14252194"></polyline>
                    <polyline id="Fill-468" fill="#780001" points="35.902464 3.35461939 35.902464 0 28.722634 0 28.722634 3.35461939 32.310892 3.35461939 32.310892 6.7125528 35.902464 6.7125528 35.902464 13.4275911 32.310892 13.4275911 32.310892 16.7855245 28.722634 16.7855245 28.722634 20.1434579 25.131062 20.1434579 25.131062 23.5013914 21.542804 23.5013914 21.542804 26.8560108 17.951232 26.8560108 17.951232 33.5718776 21.542804 33.5718776 21.542804 30.2139442 25.131062 30.2139442 25.131062 26.8560108 28.722634 26.8560108 28.722634 23.5013914 32.310892 23.5013914 32.310892 20.1434579 35.902464 20.1434579 35.902464 16.7855245 39.494036 16.7855245 39.494036 3.35461939 35.902464 3.35461939"></polyline>
                    <polyline id="Fill-469" fill="#DD0007" points="32.310892 6.7125528 32.310892 3.35461939 28.722634 3.35461939 28.722634 0 25.131062 0 25.131062 3.35461939 21.542804 3.35461939 21.542804 6.7125528 17.951232 6.7125528 17.951232 3.35461939 14.362974 3.35461939 14.362974 6.7125528 7.18314401 6.7125528 7.18314401 16.7855245 10.771402 16.7855245 10.771402 26.8560108 14.362974 26.8560108 14.362974 30.2139442 17.951232 30.2139442 17.951232 26.8560108 21.542804 26.8560108 21.542804 23.5013914 25.131062 23.5013914 25.131062 20.1434579 28.722634 20.1434579 28.722634 16.7855245 32.310892 16.7855245 32.310892 13.4275911 35.902464 13.4275911 35.902464 6.7125528 32.310892 6.7125528"></polyline>
                    <polyline id="Fill-471" fill="#FFCCD3" points="10.771402 3.35461939 7.18314401 3.35461939 7.18314401 6.7125528 14.362974 6.7125528 14.362974 3.35461939 10.771402 3.35461939"></polyline>
                    <polyline id="Fill-472" fill="#FFCCD3" points="3.59157201 10.0704862 3.59157201 13.4275911 7.18314401 13.4275911 7.18314401 6.7125528 3.59157201 6.7125528 3.59157201 10.0704862"></polyline>
                    <polyline id="Fill-473" fill="#FF5A6A" points="3.59157201 6.7125528 7.18314401 6.7125528 7.18314401 3.35461939 10.771402 3.35461939 10.771402 0 3.59157201 0 3.59157201 3.35461939 0 3.35461939 0 16.7855245 3.59157201 16.7855245 3.59157201 20.1434579 7.18314401 20.1434579 7.18314401 23.5013914 10.771402 23.5013914 10.771402 16.7855245 7.18314401 16.7855245 7.18314401 13.4275911 3.59157201 13.4275911 3.59157201 6.7125528"></polyline>
                </g>
                <g id="Group-Copy-2" transform="translate(151.793566, 0.000000)">
                    <polyline id="Fill-467" fill="#000000" points="35.902464 3.14252194 25.131062 3.14252194 25.131062 6.49796984 21.542804 6.49796984 21.542804 9.85590325 17.951232 9.85590325 17.951232 6.49796984 14.362974 6.49796984 14.362974 3.14252194 3.59157201 3.14252194 3.59157201 6.49796984 0 6.49796984 0 19.928875 3.59157201 19.928875 3.59157201 23.2868084 7.18314401 23.2868084 7.18314401 26.6439133 10.771402 26.6439133 10.771402 29.9993612 14.362974 29.9993612 14.362974 33.3572946 17.951232 33.3572946 17.951232 36.715228 21.542804 36.715228 21.542804 33.3572946 25.131062 33.3572946 25.131062 29.9993612 28.722634 29.9993612 28.722634 26.6439133 32.310892 26.6439133 32.310892 23.2868084 35.902464 23.2868084 35.902464 19.928875 39.494036 19.928875 39.494036 6.49796984 35.902464 6.49796984 35.902464 3.14252194"></polyline>
                    <polyline id="Fill-468" fill="#780001" points="35.902464 3.35461939 35.902464 0 28.722634 0 28.722634 3.35461939 32.310892 3.35461939 32.310892 6.7125528 35.902464 6.7125528 35.902464 13.4275911 32.310892 13.4275911 32.310892 16.7855245 28.722634 16.7855245 28.722634 20.1434579 25.131062 20.1434579 25.131062 23.5013914 21.542804 23.5013914 21.542804 26.8560108 17.951232 26.8560108 17.951232 33.5718776 21.542804 33.5718776 21.542804 30.2139442 25.131062 30.2139442 25.131062 26.8560108 28.722634 26.8560108 28.722634 23.5013914 32.310892 23.5013914 32.310892 20.1434579 35.902464 20.1434579 35.902464 16.7855245 39.494036 16.7855245 39.494036 3.35461939 35.902464 3.35461939"></polyline>
                    <polyline id="Fill-469" fill="#DD0007" points="32.310892 6.7125528 32.310892 3.35461939 28.722634 3.35461939 28.722634 0 25.131062 0 25.131062 3.35461939 21.542804 3.35461939 21.542804 6.7125528 17.951232 6.7125528 17.951232 3.35461939 14.362974 3.35461939 14.362974 6.7125528 7.18314401 6.7125528 7.18314401 16.7855245 10.771402 16.7855245 10.771402 26.8560108 14.362974 26.8560108 14.362974 30.2139442 17.951232 30.2139442 17.951232 26.8560108 21.542804 26.8560108 21.542804 23.5013914 25.131062 23.5013914 25.131062 20.1434579 28.722634 20.1434579 28.722634 16.7855245 32.310892 16.7855245 32.310892 13.4275911 35.902464 13.4275911 35.902464 6.7125528 32.310892 6.7125528"></polyline>
                    <polyline id="Fill-471" fill="#FFCCD3" points="10.771402 3.35461939 7.18314401 3.35461939 7.18314401 6.7125528 14.362974 6.7125528 14.362974 3.35461939 10.771402 3.35461939"></polyline>
                    <polyline id="Fill-472" fill="#FFCCD3" points="3.59157201 10.0704862 3.59157201 13.4275911 7.18314401 13.4275911 7.18314401 6.7125528 3.59157201 6.7125528 3.59157201 10.0704862"></polyline>
                    <polyline id="Fill-473" fill="#FF5A6A" points="3.59157201 6.7125528 7.18314401 6.7125528 7.18314401 3.35461939 10.771402 3.35461939 10.771402 0 3.59157201 0 3.59157201 3.35461939 0 3.35461939 0 16.7855245 3.59157201 16.7855245 3.59157201 20.1434579 7.18314401 20.1434579 7.18314401 23.5013914 10.771402 23.5013914 10.771402 16.7855245 7.18314401 16.7855245 7.18314401 13.4275911 3.59157201 13.4275911 3.59157201 6.7125528"></polyline>
                </g>
                <g id="Group-Copy-2" transform="translate(202.608579, 0.000000)">
                    <polyline id="Fill-467" fill="#000000" points="35.902464 3.14252194 25.131062 3.14252194 25.131062 6.49796984 21.542804 6.49796984 21.542804 9.85590325 17.951232 9.85590325 17.951232 6.49796984 14.362974 6.49796984 14.362974 3.14252194 3.59157201 3.14252194 3.59157201 6.49796984 0 6.49796984 0 19.928875 3.59157201 19.928875 3.59157201 23.2868084 7.18314401 23.2868084 7.18314401 26.6439133 10.771402 26.6439133 10.771402 29.9993612 14.362974 29.9993612 14.362974 33.3572946 17.951232 33.3572946 17.951232 36.715228 21.542804 36.715228 21.542804 33.3572946 25.131062 33.3572946 25.131062 29.9993612 28.722634 29.9993612 28.722634 26.6439133 32.310892 26.6439133 32.310892 23.2868084 35.902464 23.2868084 35.902464 19.928875 39.494036 19.928875 39.494036 6.49796984 35.902464 6.49796984 35.902464 3.14252194"></polyline>
                    <polyline id="Fill-468" fill="#780001" points="35.902464 3.35461939 35.902464 0 28.722634 0 28.722634 3.35461939 32.310892 3.35461939 32.310892 6.7125528 35.902464 6.7125528 35.902464 13.4275911 32.310892 13.4275911 32.310892 16.7855245 28.722634 16.7855245 28.722634 20.1434579 25.131062 20.1434579 25.131062 23.5013914 21.542804 23.5013914 21.542804 26.8560108 17.951232 26.8560108 17.951232 33.5718776 21.542804 33.5718776 21.542804 30.2139442 25.131062 30.2139442 25.131062 26.8560108 28.722634 26.8560108 28.722634 23.5013914 32.310892 23.5013914 32.310892 20.1434579 35.902464 20.1434579 35.902464 16.7855245 39.494036 16.7855245 39.494036 3.35461939 35.902464 3.35461939"></polyline>
                    <polyline id="Fill-469" fill="#DD0007" points="32.310892 6.7125528 32.310892 3.35461939 28.722634 3.35461939 28.722634 0 25.131062 0 25.131062 3.35461939 21.542804 3.35461939 21.542804 6.7125528 17.951232 6.7125528 17.951232 3.35461939 14.362974 3.35461939 14.362974 6.7125528 7.18314401 6.7125528 7.18314401 16.7855245 10.771402 16.7855245 10.771402 26.8560108 14.362974 26.8560108 14.362974 30.2139442 17.951232 30.2139442 17.951232 26.8560108 21.542804 26.8560108 21.542804 23.5013914 25.131062 23.5013914 25.131062 20.1434579 28.722634 20.1434579 28.722634 16.7855245 32.310892 16.7855245 32.310892 13.4275911 35.902464 13.4275911 35.902464 6.7125528 32.310892 6.7125528"></polyline>
                    <polyline id="Fill-471" fill="#FFCCD3" points="10.771402 3.35461939 7.18314401 3.35461939 7.18314401 6.7125528 14.362974 6.7125528 14.362974 3.35461939 10.771402 3.35461939"></polyline>
                    <polyline id="Fill-472" fill="#FFCCD3" points="3.59157201 10.0704862 3.59157201 13.4275911 7.18314401 13.4275911 7.18314401 6.7125528 3.59157201 6.7125528 3.59157201 10.0704862"></polyline>
                    <polyline id="Fill-473" fill="#FF5A6A" points="3.59157201 6.7125528 7.18314401 6.7125528 7.18314401 3.35461939 10.771402 3.35461939 10.771402 0 3.59157201 0 3.59157201 3.35461939 0 3.35461939 0 16.7855245 3.59157201 16.7855245 3.59157201 20.1434579 7.18314401 20.1434579 7.18314401 23.5013914 10.771402 23.5013914 10.771402 16.7855245 7.18314401 16.7855245 7.18314401 13.4275911 3.59157201 13.4275911 3.59157201 6.7125528"></polyline>
                </g>
            </g>
        </g>
    </g>
</svg>