<?xml version="1.0" encoding="UTF-8"?>
<svg width="23px" height="23px" viewBox="0 0 23 23" version="1.1" xmlns="http://www.w3.org/2000/svg" xmlns:xlink="http://www.w3.org/1999/xlink">
    <!-- Generator: Sketch 54.1 (76490) - https://sketchapp.com -->
    <title>Fill 41</title>
    <desc>Created with Sketch.</desc>
    <g id="Page-1" stroke="none" stroke-width="1" fill="none" fill-rule="evenodd">
        <g id="test-help" transform="translate(-656.000000, -149.000000)" fill="#F18135">
            <g id="pop-up-help" transform="translate(100.000000, 128.000000)">
                <g id="Group-5" transform="translate(555.000000, 20.000000)">
                    <polyline id="Fill-41" points="4.97746315 1.65907143 4.97746315 3.31822581 6.63661754 3.31822581 6.63661754 4.9773802 8.29577192 4.9773802 8.29577192 6.63653458 9.95492631 6.63653458 9.95492631 8.29568896 11.6140807 8.29568896 11.6140807 9.95484335 13.2732351 9.95484335 13.2732351 8.29568896 14.9323895 8.29568896 14.9323895 6.63653458 16.5915438 6.63653458 16.5915438 4.9773802 18.2506982 4.9773802 18.2506982 3.31822581 19.9098526 3.31822581 19.9098526 1.65907143 23.2281614 1.65907143 23.2281614 4.9773802 21.569007 4.9773802 21.569007 6.63653458 19.9098526 6.63653458 19.9098526 8.29568896 18.2506982 8.29568896 18.2506982 9.95484335 16.5915438 9.95484335 16.5915438 11.6139977 14.9323895 11.6139977 14.9323895 13.2731521 16.5915438 13.2731521 16.5915438 14.9323065 18.2506982 14.9323065 18.2506982 16.5914609 19.9098526 16.5914609 19.9098526 18.2506153 21.569007 18.2506153 21.569007 19.9097697 23.2281614 19.9097697 23.2281614 23.2280784 19.9098526 23.2280784 19.9098526 21.568924 18.2506982 21.568924 18.2506982 19.9097697 16.5915438 19.9097697 16.5915438 18.2506153 14.9323895 18.2506153 14.9323895 16.5914609 13.2732351 16.5914609 13.2732351 14.9323065 11.6140807 14.9323065 11.6140807 16.5914609 9.95492631 16.5914609 9.95492631 18.2506153 8.29577192 18.2506153 8.29577192 19.9097697 6.63661754 19.9097697 6.63661754 21.568924 4.97746315 21.568924 4.97746315 23.2280784 1.65915438 23.2280784 1.65915438 19.9097697 3.31830877 19.9097697 3.31830877 18.2506153 4.97746315 18.2506153 4.97746315 16.5914609 6.63661754 16.5914609 6.63661754 14.9323065 8.29577192 14.9323065 8.29577192 13.2731521 9.95492631 13.2731521 9.95492631 11.6139977 8.29577192 11.6139977 8.29577192 9.95484335 6.63661754 9.95484335 6.63661754 8.29568896 4.97746315 8.29568896 4.97746315 6.63653458 3.31830877 6.63653458 3.31830877 4.9773802 1.65915438 4.9773802 1.65915438 1.65907143 4.97746315 1.65907143"></polyline>
                </g>
            </g>
        </g>
    </g>
</svg>