<?xml version="1.0" encoding="UTF-8"?>
<svg width="51px" height="49px" viewBox="0 0 51 49" version="1.1" xmlns="http://www.w3.org/2000/svg" xmlns:xlink="http://www.w3.org/1999/xlink">
    <!-- Generator: Sketch 54.1 (76490) - https://sketchapp.com -->
    <title>Group 3</title>
    <desc>Created with Sketch.</desc>
    <g id="Page-1" stroke="none" stroke-width="1" fill="none" fill-rule="evenodd">
        <g id="test-help" transform="translate(-191.000000, -274.000000)">
            <g id="pop-up-help" transform="translate(100.000000, 128.000000)">
                <g id="50" transform="translate(60.000000, 146.000000)">
                    <g id="Group-3" transform="translate(31.000000, 0.000000)">
                        <g id="Group-2" transform="translate(0.000000, 26.706259)">
                            <polygon id="Fill-231" fill="#B0252A" points="1.43884904e-13 9.12047511 4.45355706 9.12047511 4.45355706 4.66628959 1.43884904e-13 4.66628959"></polygon>
                            <polygon id="Fill-232" fill="#FFCCD3" points="4.45355706 8.9067999 9.35567496 9.12047511 9.35567496 4.66628959 4.45355706 4.66628959"></polygon>
                            <polygon id="Fill-232" fill="#FF5A6A" points="4.45355706 4.74956018 9.35567496 4.74956018 9.35567496 1.79028752e-12 4.45355706 1.7367329e-12"></polygon>
                            <polygon id="Fill-233" fill="#D7262C" points="9.35567496 9.12047511 13.9004576 9.12047511 13.9004576 4.52970994e-13 9.35567496 1.46555691e-12"></polygon>
                            <polygon id="Fill-234" fill="#B0252A" points="2.84217094e-14 13.3578431 5.59393191 13.3586287 4.7920975 8.90522876 2.84217094e-14 8.90522876"></polygon>
                            <polygon id="Fill-235" fill="#922427" points="1.43884904e-13 17.8120287 4.45355706 17.8120287 4.45355706 13.3578431 1.43884904e-13 13.3578431"></polygon>
                            <polygon id="Fill-236" fill="#B0252A" points="4.45355706 17.8120287 9.35567496 17.8120287 9.35567496 8.90522876 4.45355706 8.90522876"></polygon>
                            <polygon id="Fill-237" fill="#B0252A" points="8.9057001 17.8120287 13.3592572 17.8120287 13.3592572 13.3578431 8.9057001 13.3578431"></polygon>
                            <polygon id="Fill-238" fill="#922427" points="4.45355706 22.2677853 13.3592572 22.2677853 13.3594143 17.3620808 4.45355706 17.3620808"></polygon>
                            <polygon id="Fill-239" fill="#D7262C" points="9.35567496 13.3586287 15.2437098 13.3578431 14.5541322 8.90522876 9.35567496 8.9067999"></polygon>
                            <polygon id="Fill-240" fill="#D7262C" points="17.3284792 13.3578431 22.2596154 13.3586287 22.2578871 4.45261438 17.3284792 4.45261438"></polygon>
                            <polygon id="Fill-241" fill="#D7262C" points="13.3594143 9.53210799 17.8129713 9.53210799 17.8129713 1.78967952e-12 13.3594143 1.78967952e-12"></polygon>
                            <polygon id="Fill-242" fill="#D7262C" points="16.6666667 13.8574661 22.2596154 13.8574661 22.2578871 8.90522876 16.6666667 8.9067999"></polygon>
                            <polygon id="Fill-243" fill="#C0242B" points="17.804173 17.8120287 22.2578871 17.8120287 22.2596154 13.3586287 17.804173 13.3586287"></polygon>
                            <polygon id="Fill-244" fill="#C0242B" points="13.3594143 17.8120287 18.3976716 17.8135998 18.3976716 13.3586287 13.3592572 13.3586287"></polygon>
                            <polygon id="Fill-245" fill="#B0252A" points="13.3594143 22.2677853 17.8129713 22.2677853 17.8129713 17.3620808 13.3592572 17.3620808"></polygon>
                            <polygon id="Fill-246" fill="#D7262C" points="13.3594143 13.3578431 17.8129713 13.3578431 17.8129713 8.90522876 13.3594143 8.90522876"></polygon>
                        </g>
                        <g id="Group-2" transform="translate(28.431373, 26.706259)">
                            <polygon id="Fill-231" fill="#B0252A" points="1.43884904e-13 9.12047511 4.45355706 9.12047511 4.45355706 4.66628959 1.43884904e-13 4.66628959"></polygon>
                            <polygon id="Fill-232" fill="#FFCCD3" points="4.45355706 8.9067999 9.35567496 9.12047511 9.35567496 4.66628959 4.45355706 4.66628959"></polygon>
                            <polygon id="Fill-232" fill="#FF5A6A" points="4.45355706 4.74956018 9.35567496 4.74956018 9.35567496 1.79028752e-12 4.45355706 1.7367329e-12"></polygon>
                            <polygon id="Fill-233" fill="#D7262C" points="9.35567496 9.12047511 13.9004576 9.12047511 13.9004576 4.52970994e-13 9.35567496 1.46555691e-12"></polygon>
                            <polygon id="Fill-234" fill="#B0252A" points="2.84217094e-14 13.3578431 5.59393191 13.3586287 4.7920975 8.90522876 2.84217094e-14 8.90522876"></polygon>
                            <polygon id="Fill-235" fill="#922427" points="1.43884904e-13 17.8120287 4.45355706 17.8120287 4.45355706 13.3578431 1.43884904e-13 13.3578431"></polygon>
                            <polygon id="Fill-236" fill="#B0252A" points="4.45355706 17.8120287 9.35567496 17.8120287 9.35567496 8.90522876 4.45355706 8.90522876"></polygon>
                            <polygon id="Fill-237" fill="#B0252A" points="8.9057001 17.8120287 13.3592572 17.8120287 13.3592572 13.3578431 8.9057001 13.3578431"></polygon>
                            <polygon id="Fill-238" fill="#922427" points="4.45355706 22.2677853 13.3592572 22.2677853 13.3594143 17.3620808 4.45355706 17.3620808"></polygon>
                            <polygon id="Fill-239" fill="#D7262C" points="9.35567496 13.3586287 15.2437098 13.3578431 14.5541322 8.90522876 9.35567496 8.9067999"></polygon>
                            <polygon id="Fill-240" fill="#D7262C" points="17.3284792 13.3578431 22.2596154 13.3586287 22.2578871 4.45261438 17.3284792 4.45261438"></polygon>
                            <polygon id="Fill-241" fill="#D7262C" points="13.3594143 9.53210799 17.8129713 9.53210799 17.8129713 1.78967952e-12 13.3594143 1.78967952e-12"></polygon>
                            <polygon id="Fill-242" fill="#D7262C" points="16.6666667 13.8574661 22.2596154 13.8574661 22.2578871 8.90522876 16.6666667 8.9067999"></polygon>
                            <polygon id="Fill-243" fill="#C0242B" points="17.804173 17.8120287 22.2578871 17.8120287 22.2596154 13.3586287 17.804173 13.3586287"></polygon>
                            <polygon id="Fill-244" fill="#C0242B" points="13.3594143 17.8120287 18.3976716 17.8135998 18.3976716 13.3586287 13.3592572 13.3586287"></polygon>
                            <polygon id="Fill-245" fill="#B0252A" points="13.3594143 22.2677853 17.8129713 22.2677853 17.8129713 17.3620808 13.3592572 17.3620808"></polygon>
                            <polygon id="Fill-246" fill="#D7262C" points="13.3594143 13.3578431 17.8129713 13.3578431 17.8129713 8.90522876 13.3594143 8.90522876"></polygon>
                        </g>
                        <polygon id="Fill-263" fill="#14713C" points="13.3594143 26.7062594 17.8129713 26.7062594 17.8129713 17.7994595 13.3594143 17.7994595"></polygon>
                        <polygon id="Fill-264" fill="#14713C" points="17.804173 17.8135998 22.2578871 17.8135998 22.2578871 13.3609854 17.804173 13.3609854"></polygon>
                        <polygon id="Fill-265" fill="#14713C" points="22.2596154 13.3609854 26.7131724 13.3609854 26.7131724 8.9067999 22.2596154 8.9067999"></polygon>
                        <polygon id="Fill-266" fill="#14713C" points="31.1778846 17.8135998 35.6314417 17.8135998 35.6314417 8.9067999 31.1778846 8.9067999"></polygon>
                        <polygon id="Fill-267" fill="#14713C" points="26.7241704 8.9067999 31.1778846 8.9067999 31.1778846 4.45261438 26.7241704 4.45261438"></polygon>
                        <polygon id="Fill-268" fill="#14713C" points="35.6226433 26.7062594 40.0763575 26.7062594 40.0763575 17.7994595 35.6226433 17.7994595"></polygon>
                        <polygon id="Fill-269" fill="#0C8A45" points="8.9057001 8.9067999 17.8129713 8.9067999 17.8129713 4.45261438 8.9057001 4.45261438"></polygon>
                        <polygon id="Fill-270" fill="#039B4D" points="13.3594143 4.45261438 17.8129713 4.45261438 17.8129713 6.08846307e-13 13.3594143 6.08846307e-13"></polygon>
                        <polygon id="Fill-271" fill="#0C8A45" points="17.804173 8.9067999 22.2578871 8.9067999 22.2578871 -1.63424829e-13 17.804173 -1.63424829e-13"></polygon>
                        <polygon id="Fill-272" fill="#0C8A45" points="22.2596154 4.45261438 26.7131724 4.45261438 26.7131724 6.08846307e-13 22.2596154 6.08846307e-13"></polygon>
                    </g>
                </g>
            </g>
        </g>
    </g>
</svg>