<?xml version="1.0" encoding="UTF-8"?>
<svg width="40px" height="34px" viewBox="0 0 40 34" version="1.1" xmlns="http://www.w3.org/2000/svg" xmlns:xlink="http://www.w3.org/1999/xlink">
    <!-- Generator: Sketch 54.1 (76490) - https://sketchapp.com -->
    <title>Group Copy 2</title>
    <desc>Created with Sketch.</desc>
    <g id="Page-1" stroke="none" stroke-width="1" fill="none" fill-rule="evenodd">
        <g id="test-fail" transform="translate(-380.000000, -160.000000)" fill="#5E6D85">
            <g id="Group-6" transform="translate(100.000000, 128.000000)">
                <g id="Group-Copy-2" transform="translate(280.000000, 32.000000)">
                    <polyline id="Fill-468" points="36.1116667 3.37416667 36.1116667 0 28.89 0 28.89 3.37416667 32.4991667 3.37416667 32.4991667 6.75166667 36.1116667 6.75166667 36.1116667 13.5058333 32.4991667 13.5058333 32.4991667 16.8833333 28.89 16.8833333 28.89 20.2608333 25.2775 20.2608333 25.2775 23.6383333 21.6683333 23.6383333 21.6683333 27.0125 18.0558333 27.0125 18.0558333 33.7675 21.6683333 33.7675 21.6683333 30.39 25.2775 30.39 25.2775 27.0125 28.89 27.0125 28.89 23.6383333 32.4991667 23.6383333 32.4991667 20.2608333 36.1116667 20.2608333 36.1116667 16.8833333 39.7241667 16.8833333 39.7241667 3.37416667 36.1116667 3.37416667"></polyline>
                    <polygon id="Fill-469" points="32.9894592 1.68224981 28.89 3.37416667 28.89 0 25.2775 0 25.2775 3.37416667 21.6683333 3.37416667 21.6683333 6.75166667 18.0558333 6.75166667 18.0558333 3.37416667 13.6 3.37416667 12.5276467 6.32788209 7.225 5.66422034 6.73656767 18.2554687 10.4042511 18.2554687 10.8341667 27.0125 14.4466667 27.0125 14.4466667 30.39 18.0558333 30.39 19.8630134 27.0125 21.6968551 28.315625 23.5306968 24.7382813 25.2775 24.7382813 26.4 21.7703125 29.0322219 21.7703125 29.3217758 18.2554687 32.4991667 18.2554687 32.9894592 15.195 36.6571426 13.5058333 36.1116667 6.75166667 32.9894592 5.06291667"></polygon>
                    <polyline id="Fill-471" points="10.8341667 3.37416667 7.225 3.37416667 7.225 6.75166667 14.4466667 6.75166667 14.4466667 3.37416667 10.8341667 3.37416667"></polyline>
                    <polyline id="Fill-472" points="3.6125 10.1291667 3.6125 13.5058333 7.225 13.5058333 7.225 6.75166667 3.6125 6.75166667 3.6125 10.1291667"></polyline>
                    <polyline id="Fill-473" points="8.85996331 7.6552056 8.85996331 6.75166667 8.85996331 3.37416667 10.8358333 4.33689683 10.8341667 0 3.6125 0 3.6125 3.37416667 0 3.37416667 0 16.8833333 3.6125 16.8833333 3.6125 20.2608333 7.225 20.2608333 7.225 23.6383333 10.8341667 23.6383333 10.8341667 16.8833333 7.225 16.8833333 8.85996331 13.5058333 4.90272599 13.5058333 3.6125 6.75166667"></polyline>
                </g>
            </g>
        </g>
    </g>
</svg>