<?xml version="1.0" encoding="UTF-8"?>
<svg width="35px" height="30px" viewBox="0 0 35 30" version="1.1" xmlns="http://www.w3.org/2000/svg" xmlns:xlink="http://www.w3.org/1999/xlink">
    <!-- Generator: Sketch 54.1 (76490) - https://sketchapp.com -->
    <title>home</title>
    <desc>Created with Sketch.</desc>
    <g id="Page-1" stroke="none" stroke-width="1" fill="none" fill-rule="evenodd">
        <g id="results-forperson" transform="translate(-123.000000, -87.000000)">
            <g id="Group-5" transform="translate(110.000000, 87.000000)">
                <g id="home" transform="translate(13.000000, 0.000000)">
                    <polygon id="Fill-2301" fill="#7DBC42" points="32.1072839 29.9672819 34.2472858 29.9672819 34.2472858 27.4633587 32.1072839 27.8262436"></polygon>
                    <polygon id="Fill-2302" fill="#989998" points="32.1072839 27.8262436 34.2472858 27.8262436 34.2472858 25.6862416 32.1072839 25.6862416"></polygon>
                    <polygon id="Fill-2303" fill="#AD2027" points="32.1072839 10.7027734 34.2472858 10.7027734 34.2472858 8.56208054 32.1072839 8.56208054"></polygon>
                    <polygon id="Fill-2304" fill="#7DBC42" points="29.9662456 29.9672819 32.1072839 29.9672819 32.1072839 27.8262436 29.9662456 27.8262436"></polygon>
                    <polygon id="Fill-2305" fill="#989998" points="29.9662456 27.8262436 32.1072839 27.8262436 32.1072839 25.6862416 29.9662456 25.6862416"></polygon>
                    <polygon id="Fill-2306" fill="#6B482D" points="29.4440864 25.6862416 32.1072839 25.6862416 32.1072839 10.7027734 29.6208909 10.7027734"></polygon>
                    <polygon id="Fill-2307" fill="#7D5334" points="29.0190486 10.7027734 32.1072839 10.7027734 32.1072839 8.56208054 29.0190486 8.56208054"></polygon>
                    <polygon id="Fill-2308" fill="#AD2027" points="29.9662456 8.56208054 32.1072839 8.56208054 32.1072839 6.42207856 29.9662456 6.42207856"></polygon>
                    <polygon id="Fill-2309" fill="#7DBC42" points="27.8262436 29.9672819 29.9662456 29.9672819 29.9662456 27.8262436 27.8262436 27.8262436"></polygon>
                    <polygon id="Fill-2310" fill="#989998" points="27.8262436 27.8262436 29.9662456 27.8262436 29.9662456 25.6862416 27.8262436 25.6862416"></polygon>
                    <polygon id="Fill-2311" fill="#8E5D3C" points="27.8262436 25.6862416 29.9662456 25.7352941 29.9662456 10.7027734 27.8262436 10.7027734"></polygon>
                    <polygon id="Fill-2312" fill="#7D5334" points="27.8262436 10.7027734 29.9662456 10.7027734 29.9662456 8.56208054 27.8262436 8.56208054"></polygon>
                    <polygon id="Fill-2313" fill="#AD2027" points="27.8262436 8.56208054 30.9144789 8.56208054 30.9144789 6.42207856 27.8262436 6.42207856"></polygon>
                    <polygon id="Fill-2314" fill="#7DBC42" points="25.6858962 29.9672819 27.8262436 29.9672819 27.8262436 27.8262436 25.6858962 27.8262436"></polygon>
                    <polygon id="Fill-2315" fill="#989998" points="25.6858962 27.8262436 27.8262436 27.8262436 27.8262436 25.6862416 25.6858962 25.6862416"></polygon>
                    <polygon id="Fill-2316" fill="#FFFFFE" points="25.6858962 25.6862416 27.8262436 25.6862416 27.8262436 12.8431208 25.6858962 12.8431208"></polygon>
                    <polygon id="Fill-2317" fill="#8E5D3C" points="25.6858962 12.8431208 27.8262436 12.8431208 27.8262436 8.56208054 25.6858962 8.56208054"></polygon>
                    <polygon id="Fill-2318" fill="#7D5334" points="24.7380083 8.56208054 27.8262436 8.56208054 27.8262436 6.42207856 24.7380083 6.42207856"></polygon>
                    <polygon id="Fill-2319" fill="#AD2027" points="25.6858962 6.42207856 27.8262436 6.42207856 27.8262436 4.28173115 25.6858962 4.28173115"></polygon>
                    <polygon id="Fill-2320" fill="#7DBC42" points="23.5445124 29.9672819 25.6858962 29.9672819 25.6858962 27.8262436 23.5445124 27.8262436"></polygon>
                    <polygon id="Fill-2321" fill="#989998" points="23.5445124 27.8262436 25.6858962 27.8262436 25.6858962 25.6862416 23.5445124 25.6862416"></polygon>
                    <polygon id="Fill-2322" fill="#FFFFFE" points="23.5445124 25.6862416 25.6858962 25.6862416 25.6858962 19.2648539 23.5445124 19.2648539"></polygon>
                    <polygon id="Fill-2323" fill="#00B5E0" points="23.5445124 19.2648539 25.6858962 19.2648539 25.6858962 17.124852 23.5445124 17.124852"></polygon>
                    <polygon id="Fill-2324" fill="#60C4E4" points="23.5445124 17.124852 25.6858962 17.124852 25.6858962 14.9831228 23.5445124 14.9831228"></polygon>
                    <polygon id="Fill-2325" fill="#FFFFFE" points="23.5445124 14.9831228 25.6858962 14.9831228 25.6858962 12.8431208 23.5445124 12.8431208"></polygon>
                    <polygon id="Fill-2326" fill="#8E5D3C" points="22.5976609 12.8431208 27.7447197 12.8431208 27.7447197 8.56208054 22.5976609 8.56208054"></polygon>
                    <polygon id="Fill-2327" fill="#7D5334" points="23.5445124 8.56208054 25.6858962 8.56208054 25.6858962 6.42207856 23.5445124 6.42207856"></polygon>
                    <polygon id="Fill-2328" fill="#AD2027" points="23.5445124 6.42207856 26.6327477 6.42207856 26.6327477 4.28173115 23.5445124 4.28173115"></polygon>
                    <polygon id="Fill-2329" fill="#7DBC42" points="21.4045105 29.9672819 23.5445124 29.9672819 23.5445124 27.8262436 21.4045105 27.8262436"></polygon>
                    <polygon id="Fill-2330" fill="#989998" points="21.4045105 27.8262436 23.5445124 27.8262436 23.5445124 25.6862416 21.4045105 25.6862416"></polygon>
                    <polygon id="Fill-2331" fill="#FFFFFE" points="21.4045105 25.6862416 23.5445124 25.6862416 23.5445124 19.2648539 21.4045105 19.2648539"></polygon>
                    <polygon id="Fill-2332" fill="#60C4E4" points="21.4045105 19.2648539 23.5445124 19.2648539 23.5445124 17.124852 21.4045105 17.124852"></polygon>
                    <polygon id="Fill-2333" fill="#B4DFED" points="21.4045105 17.124852 23.5445124 17.124852 23.5445124 14.9831228 21.4045105 14.9831228"></polygon>
                    <polygon id="Fill-2334" fill="#FFFFFE" points="20.4562771 14.9831228 26.6327477 14.9831228 26.6327477 12.8431208 20.4562771 12.8431208"></polygon>
                    <polygon id="Fill-2335" fill="#8E5D3C" points="21.4045105 12.8431208 23.5445124 12.8431208 23.5445124 6.42207856 21.4045105 6.42207856"></polygon>
                    <polygon id="Fill-2336" fill="#7D5334" points="20.4562771 6.42207856 23.5445124 6.42207856 23.5445124 4.28173115 20.4562771 4.28173115"></polygon>
                    <polygon id="Fill-2337" fill="#AD2027" points="21.4045105 4.28173115 23.5445124 4.28173115 23.5445124 2.14069285 21.4045105 2.14069285"></polygon>
                    <polygon id="Fill-2338" fill="#7DBC42" points="19.2645085 29.9672819 21.4045105 29.9672819 21.4045105 27.8262436 19.2645085 27.8262436"></polygon>
                    <polygon id="Fill-2339" fill="#989998" points="0.816275168 27.8262436 33.7574516 27.8262436 33.7574516 25.6862416 0.816275168 25.6862416"></polygon>
                    <polygon id="Fill-2340" fill="#FFFFFE" points="19.2645085 25.6862416 21.4045105 25.6862416 21.4045105 12.8431208 19.2645085 12.8431208"></polygon>
                    <polygon id="Rectangle" fill="#FFFFFE" points="19.0931702 19.5588235 27.8262436 19.5588235 27.8262436 25.7352941 19.0931702 25.7352941"></polygon>
                    <polygon id="Fill-2341" fill="#8E5D3C" points="19.2645085 12.8431208 21.4045105 12.8431208 21.4045105 6.42207856 19.2645085 6.42207856"></polygon>
                    <polygon id="Fill-2342" fill="#7D5334" points="19.2645085 6.42207856 21.4045105 6.42207856 21.4045105 4.28173115 19.2645085 4.28173115"></polygon>
                    <polygon id="Fill-2343" fill="#AD2027" points="19.2645085 4.28173115 22.3527438 4.28173115 22.3527438 2.14069285 19.2645085 2.14069285"></polygon>
                    <polygon id="Fill-2344" fill="#7DBC42" points="17.1227793 29.9672819 19.2645085 29.9672819 19.2645085 27.8262436 17.1227793 27.8262436"></polygon>
                    <polygon id="Fill-2345" fill="#989998" points="17.1227793 27.8262436 19.2645085 27.8262436 19.2645085 25.6862416 17.1227793 25.6862416"></polygon>
                    <polygon id="Fill-2346" fill="#8E5D3C" points="17.1227793 25.6862416 19.2645085 25.6862416 19.2645085 4.28173115 17.1227793 4.28173115"></polygon>
                    <polygon id="Fill-2347" fill="#7D5334" points="16.1762732 4.28173115 19.2645085 4.28173115 19.2645085 2.14069285 16.1762732 2.14069285"></polygon>
                    <polygon id="Fill-2348" fill="#AD2027" points="17.1227793 2.14069285 19.2645085 2.14069285 19.2645085 -5.48006085e-13 17.1227793 -5.48006085e-13"></polygon>
                    <polygon id="Fill-2349" fill="#7DBC42" points="14.9827773 29.9672819 17.1227793 29.9672819 17.1227793 27.8262436 14.9827773 27.8262436"></polygon>
                    <polygon id="Fill-2350" fill="#989998" points="14.9827773 27.8262436 17.1227793 27.8262436 17.1227793 25.6862416 14.9827773 25.6862416"></polygon>
                    <polygon id="Fill-2351" fill="#8E5D3C" points="14.9827773 25.6862416 17.1227793 25.6862416 17.1227793 4.28173115 14.9827773 4.28173115"></polygon>
                    <polygon id="Fill-2352" fill="#7D5334" points="14.9827773 4.28173115 17.1227793 4.28173115 17.1227793 2.14069285 14.9827773 2.14069285"></polygon>
                    <polygon id="Fill-2353" fill="#AD2027" points="14.9827773 2.14069285 18.0710126 2.14069285 18.0710126 3.61488617e-13 14.9827773 3.61488617e-13"></polygon>
                    <polygon id="Fill-2354" fill="#7DBC42" points="12.8427754 29.9672819 14.9827773 29.9672819 14.9827773 27.8262436 12.8427754 27.8262436"></polygon>
                    <polygon id="Fill-2355" fill="#989998" points="12.8427754 27.8262436 14.9827773 27.8262436 14.9827773 25.6862416 12.8427754 25.6862416"></polygon>
                    <polygon id="Fill-2356" fill="#8E5D3C" points="12.8427754 25.6862416 14.9827773 25.6862416 14.9827773 23.5462396 12.8427754 23.5462396"></polygon>
                    <polygon id="Fill-2357" fill="#FFFFFE" points="12.8427754 23.5462396 14.9827773 23.5462396 14.9827773 12.8431208 12.8427754 12.8431208"></polygon>
                    <polygon id="Fill-2358" fill="#8E5D3C" points="12.8427754 12.8431208 14.9827773 12.8431208 14.9827773 6.42207856 12.8427754 6.42207856"></polygon>
                    <polygon id="Fill-2359" fill="#7D5334" points="10.8651303 6.42207856 14.9827773 6.42207856 14.9827773 4.28173115 10.8651303 4.28173115"></polygon>
                    <polygon id="Fill-2360" fill="#AD2027" points="12.8427754 4.28173115 14.9827773 4.28173115 14.9827773 2.14069285 12.8427754 2.14069285"></polygon>
                    <polygon id="Fill-2361" fill="#7DBC42" points="10.7017371 29.9672819 12.8427754 29.9672819 12.8427754 27.8262436 10.7017371 27.8262436"></polygon>
                    <polygon id="Fill-2362" fill="#989998" points="10.7017371 27.8262436 12.8427754 27.8262436 12.8427754 25.6862416 10.7017371 25.6862416"></polygon>
                    <polygon id="Fill-2363" fill="#8E5D3C" points="10.7017371 25.6862416 12.8427754 25.6862416 12.8427754 23.5462396 10.7017371 23.5462396"></polygon>
                    <polygon id="Fill-2364" fill="#FFFFFE" points="10.7017371 23.5462396 12.8427754 23.5462396 12.8427754 21.4052013 10.7017371 21.4052013"></polygon>
                    <polygon id="Fill-2365" fill="#00B5E0" points="10.7017371 21.4052013 12.8427754 21.4052013 12.8427754 19.2648539 10.7017371 19.2648539"></polygon>
                    <polygon id="Fill-2366" fill="#60C4E4" points="10.7017371 19.2648539 12.8427754 19.2648539 12.8427754 14.9831228 10.7017371 14.9831228"></polygon>
                    <polygon id="Fill-2367" fill="#FFFFFE" points="7.69571654 14.9831228 13.8721871 14.9831228 13.8721871 12.8431208 7.69571654 12.8431208"></polygon>
                    <polygon id="Fill-2368" fill="#8E5D3C" points="10.7017371 12.8431208 23.0546782 12.8431208 23.0546782 6.42207856 10.7017371 6.42207856"></polygon>
                    <polygon id="Fill-2369" fill="#7D5334" points="10.7017371 6.42207856 12.8427754 6.42207856 12.8427754 4.28173115 10.7017371 4.28173115"></polygon>
                    <polygon id="Fill-2370" fill="#AD2027" points="10.7017371 4.28173115 13.7899724 4.28173115 13.7899724 2.14069285 10.7017371 2.14069285"></polygon>
                    <polygon id="Fill-2371" fill="#7DBC42" points="8.5617351 29.9672819 10.7017371 29.9672819 10.7017371 27.8262436 8.5617351 27.8262436"></polygon>
                    <polygon id="Fill-2372" fill="#989998" points="8.5617351 27.8262436 10.7017371 27.8262436 10.7017371 25.6862416 8.5617351 25.6862416"></polygon>
                    <polygon id="Fill-2373" fill="#8E5D3C" points="8.5617351 25.6862416 10.7017371 25.6862416 10.7017371 23.5462396 8.5617351 23.5462396"></polygon>
                    <polygon id="Fill-2374" fill="#FFFFFE" points="6.58409001 23.5462396 13.7899724 23.5462396 13.7899724 21.4052013 6.58409001 21.4052013"></polygon>
                    <polygon id="Fill-2375" fill="#00B5E0" points="8.5617351 21.4052013 10.7017371 21.4052013 10.7017371 19.2648539 8.5617351 19.2648539"></polygon>
                    <polygon id="Fill-2376" fill="#60C4E4" points="8.5617351 19.2648539 10.7017371 19.2648539 10.7017371 17.124852 8.5617351 17.124852"></polygon>
                    <polygon id="Fill-2377" fill="#B4DFED" points="8.5617351 17.124852 10.7017371 17.124852 10.7017371 14.9831228 8.5617351 14.9831228"></polygon>
                    <polygon id="Fill-2378" fill="#FFFFFE" points="8.5617351 14.9831228 10.7017371 14.9831228 10.7017371 12.8431208 8.5617351 12.8431208"></polygon>
                    <polygon id="Fill-2379" fill="#8E5D3C" points="8.5617351 12.8431208 10.7017371 12.8431208 10.7017371 8.56208054 8.5617351 8.56208054"></polygon>
                    <path d="M8.23156917,8.56208054 L10.7017371,8.56208054 L10.7017371,6.42207856 L8.23156917,6.42207856 C7.87433408,6.88480436 7.69571654,7.24147135 7.69571654,7.49207955 C7.69571654,7.74268775 7.87433408,8.09935474 8.23156917,8.56208054 Z" id="Fill-2380" fill="#7D5334"></path>
                    <polygon id="Fill-2381" fill="#AD2027" points="8.5617351 6.42207856 10.7017371 6.42207856 10.7017371 4.28173115 8.5617351 4.28173115"></polygon>
                    <polygon id="Fill-2382" fill="#7DBC42" points="6.42173312 29.9672819 8.5617351 29.9672819 8.5617351 27.8262436 6.42173312 27.8262436"></polygon>
                    <polygon id="Fill-2383" fill="#989998" points="6.42173312 27.8262436 8.5617351 27.8262436 8.5617351 25.6862416 6.42173312 25.6862416"></polygon>
                    <polygon id="Fill-2384" fill="#8E5D3C" points="6.42173312 25.6862416 8.5617351 25.6862416 8.5617351 23.5462396 6.42173312 23.5462396"></polygon>
                    <polygon id="Fill-2385" fill="#FFFFFE" points="6.42173312 23.5462396 8.5617351 23.5462396 8.5617351 12.8431208 6.42173312 12.8431208"></polygon>
                    <polygon id="Fill-2386" fill="#8E5D3C" points="6.04117897 12.8431208 12.6614829 12.8431208 11.0932384 8.56208054 5.83459292 8.56208054"></polygon>
                    <polygon id="Fill-2387" fill="#7D5334" points="6.42173312 8.56208054 8.5617351 8.56208054 8.5617351 6.42207856 6.42173312 6.42207856"></polygon>
                    <polygon id="Fill-2388" fill="#AD2027" points="6.42173312 6.42207856 8.5617351 6.42207856 8.5617351 4.28173115 6.42173312 4.28173115"></polygon>
                    <polygon id="Fill-2389" fill="#7DBC42" points="4.28000395 29.9672819 6.42173312 29.9672819 6.42173312 27.8262436 4.28000395 27.8262436"></polygon>
                    <polygon id="Fill-2390" fill="#989998" points="4.28000395 27.8262436 6.42173312 27.8262436 6.42173312 25.6862416 4.28000395 25.6862416"></polygon>
                    <polygon id="Fill-2391" fill="#8E5D3C" points="3.67498958 25.7352941 6.42173312 25.6862416 6.42173312 10.4555915 3.67498958 10.4555915"></polygon>
                    <polygon id="Fill-2392" fill="#7D5334" points="3.33349783 10.7027734 6.42173312 10.7027734 6.42173312 8.56208054 3.33349783 8.56208054"></polygon>
                    <polygon id="Fill-2393" fill="#AD2027" points="4.28000395 8.56208054 6.42173312 8.56208054 6.42173312 6.42207856 4.28000395 6.42207856"></polygon>
                    <polygon id="Fill-2394" fill="#17ED4D" points="0.162356889 29.9672819 34.1329451 29.9672819 34.1329451 27.8262436 0.162356889 27.8262436"></polygon>
                    <polygon id="Fill-2395" fill="#989998" points="2.13965653 27.8262436 4.28000395 27.8262436 4.28000395 25.6862416 2.13965653 25.6862416"></polygon>
                    <polygon id="Fill-2396" fill="#6B482D" points="2.13965653 25.6862416 4.28000395 25.7352941 4.28000395 10.4555915 2.13965653 10.4555915"></polygon>
                    <polygon id="Fill-2397" fill="#7D5334" points="2.13965653 10.7027734 4.28000395 10.7027734 4.28000395 8.56208054 2.13965653 8.56208054"></polygon>
                    <polygon id="Fill-2398" fill="#AD2027" points="2.13965653 8.56208054 6.33882786 8.56208054 6.33882786 6.42207856 2.13965653 6.42207856"></polygon>
                    <polygon id="Fill-2399" fill="#7DBC42" points="1.0658141e-13 29.9672819 2.13965653 29.9672819 2.13965653 27.8262436 1.0658141e-13 27.8262436"></polygon>
                    <polygon id="Fill-2400" fill="#989998" points="1.0658141e-13 27.8262436 2.13965653 27.8262436 2.13965653 25.6862416 1.0658141e-13 25.6862416"></polygon>
                    <polygon id="Fill-2401" fill="#AD2027" points="1.070255e-13 10.7027734 2.13965653 10.7027734 2.13965653 8.56208054 1.070255e-13 8.56208054"></polygon>
                </g>
            </g>
        </g>
    </g>
</svg>