<?xml version="1.0" encoding="UTF-8"?>
<svg width="50px" height="43px" viewBox="0 0 50 43" version="1.1" xmlns="http://www.w3.org/2000/svg" xmlns:xlink="http://www.w3.org/1999/xlink">
    <!-- Generator: Sketch 54.1 (76490) - https://sketchapp.com -->
    <title>Group Copy 2</title>
    <desc>Created with Sketch.</desc>
    <g id="Page-1" stroke="none" stroke-width="1" fill="none" fill-rule="evenodd">
        <g id="test-help" transform="translate(-375.000000, -281.000000)">
            <g id="pop-up-help" transform="translate(100.000000, 128.000000)">
                <g id="hover" transform="translate(228.000000, 153.000000)">
                    <g id="Group-Copy-2" transform="translate(47.000000, 0.000000)">
                        <polyline id="Fill-468" fill="#780001" points="45.1395833 4.21770833 45.1395833 0 36.1125 0 36.1125 4.21770833 40.6239583 4.21770833 40.6239583 8.43958333 45.1395833 8.43958333 45.1395833 16.8822917 40.6239583 16.8822917 40.6239583 21.1041667 36.1125 21.1041667 36.1125 25.3260417 31.596875 25.3260417 31.596875 29.5479167 27.0854167 29.5479167 27.0854167 33.765625 22.5697917 33.765625 22.5697917 42.209375 27.0854167 42.209375 27.0854167 37.9875 31.596875 37.9875 31.596875 33.765625 36.1125 33.765625 36.1125 29.5479167 40.6239583 29.5479167 40.6239583 25.3260417 45.1395833 25.3260417 45.1395833 21.1041667 49.6552083 21.1041667 49.6552083 4.21770833 45.1395833 4.21770833"></polyline>
                        <polyline id="Fill-469" fill="#DD0007" points="40.6239583 8.43958333 40.6239583 4.21770833 36.1125 4.21770833 36.1125 0 31.596875 0 31.596875 4.21770833 27.0854167 4.21770833 27.0854167 8.43958333 22.5697917 8.43958333 22.5697917 4.21770833 18.0583333 4.21770833 18.0583333 8.43958333 9.03125 8.43958333 9.03125 21.1041667 13.5427083 21.1041667 13.5427083 33.765625 18.0583333 33.765625 18.0583333 37.9875 22.5697917 37.9875 22.5697917 33.765625 27.0854167 33.765625 27.0854167 29.5479167 31.596875 29.5479167 31.596875 25.3260417 36.1125 25.3260417 36.1125 21.1041667 40.6239583 21.1041667 40.6239583 16.8822917 45.1395833 16.8822917 45.1395833 8.43958333 40.6239583 8.43958333"></polyline>
                        <polyline id="Fill-471" fill="#FFCCD3" points="13.5427083 4.21770833 9.03125 4.21770833 9.03125 8.43958333 18.0583333 8.43958333 18.0583333 4.21770833 13.5427083 4.21770833"></polyline>
                        <polyline id="Fill-472" fill="#FFCCD3" points="4.515625 12.6614583 4.515625 16.8822917 9.03125 16.8822917 9.03125 8.43958333 4.515625 8.43958333 4.515625 12.6614583"></polyline>
                        <polyline id="Fill-473" fill="#FF5A6A" points="4.515625 8.43958333 9.03125 8.43958333 9.03125 4.21770833 13.5427083 4.21770833 13.5427083 0 4.515625 0 4.515625 4.21770833 0 4.21770833 0 21.1041667 4.515625 21.1041667 4.515625 25.3260417 9.03125 25.3260417 9.03125 29.5479167 13.5427083 29.5479167 13.5427083 21.1041667 9.03125 21.1041667 9.03125 16.8822917 4.515625 16.8822917 4.515625 8.43958333"></polyline>
                    </g>
                </g>
            </g>
        </g>
    </g>
</svg>