<?xml version="1.0" encoding="UTF-8"?>
<svg width="46px" height="50px" viewBox="0 0 46 50" version="1.1" xmlns="http://www.w3.org/2000/svg" xmlns:xlink="http://www.w3.org/1999/xlink">
    <!-- Generator: Sketch 54.1 (76490) - https://sketchapp.com -->
    <title>Group 16</title>
    <desc>Created with Sketch.</desc>
    <g id="Page-1" stroke="none" stroke-width="1" fill="none" fill-rule="evenodd">
        <g id="test-help" transform="translate(-561.000000, -274.000000)">
            <g id="pop-up-help" transform="translate(100.000000, 128.000000)">
                <g id="peoplehelp" transform="translate(428.000000, 146.000000)">
                    <g id="Group-16" transform="translate(33.000000, 0.000000)">
                        <polygon id="Fill-646" fill="#630D26" points="31.5030541 37.4023392 35.003138 37.4023392 35.003138 28.0517544 31.5030541 28.0517544"></polygon>
                        <polygon id="Fill-647" fill="#630D26" points="28.0026418 31.1687135 31.5030541 31.1687135 31.5030541 24.9350877 28.0026418 24.9350877"></polygon>
                        <polygon id="Fill-648" fill="#630D26" points="24.5022295 28.0517544 28.0026418 28.0517544 28.0026418 21.8181287 24.5022295 21.8181287"></polygon>
                        <polyline id="Fill-649" fill="#B0A28D" points="42.0039626 21.8181287 38.5035503 21.8181287 38.5035503 24.9350877 35.003138 24.9350877 35.003138 31.1687135 38.5035503 31.1687135 38.5035503 28.0517544 42.0039626 28.0517544 42.0039626 24.9350877 45.504375 24.9350877 45.504375 18.7011696 42.0039626 18.7011696 42.0039626 21.8181287"></polyline>
                        <polyline id="Fill-650" fill="#B0A28D" points="28.0026418 34.2856725 24.5022295 34.2856725 24.5022295 37.4023392 21.0021455 37.4023392 21.0021455 43.6362573 24.5022295 43.6362573 24.5022295 40.5192982 28.0026418 40.5192982 28.0026418 37.4023392 31.5030541 37.4023392 31.5030541 31.1687135 28.0026418 31.1687135 28.0026418 34.2856725"></polyline>
                        <polygon id="Fill-651" fill="#630D26" points="21.0021455 24.9350877 24.5022295 24.9350877 24.5022295 18.7011696 21.0021455 18.7011696"></polygon>
                        <polygon id="Fill-652" fill="#630D26" points="17.5017332 21.8181287 21.0021455 21.8181287 21.0021455 15.5845029 17.5017332 15.5845029"></polygon>
                        <polygon id="Fill-653" fill="#630D26" points="14.0013209 18.7011696 17.5017332 18.7011696 17.5017332 12.4675439 14.0013209 12.4675439"></polygon>
                        <polygon id="Fill-654" fill="#630D26" points="10.5012369 15.5845029 14.0013209 15.5845029 14.0013209 12.4675439 10.5012369 12.4675439"></polygon>
                        <polyline id="Fill-655" fill="#CA7538" points="38.5035503 15.5845029 38.5035503 21.8181287 42.0039626 21.8181287 42.0039626 12.4675439 38.5035503 12.4675439 38.5035503 15.5845029"></polyline>
                        <polyline id="Fill-656" fill="#CA7538" points="28.0026418 6.23391813 31.5030541 6.23391813 31.5030541 3.11695906 21.0021455 3.11695906 21.0021455 6.23391813 28.0026418 6.23391813"></polyline>
                        <polyline id="Fill-657" fill="#CA7538" points="21.0021455 37.4023392 24.5022295 37.4023392 24.5022295 34.2856725 14.0013209 34.2856725 14.0013209 37.4023392 21.0021455 37.4023392"></polyline>
                        <polyline id="Fill-658" fill="#CA7538" points="3.50041231 21.8181287 3.50041231 28.0517544 7.00082463 28.0517544 7.00082463 18.7011696 3.50041231 18.7011696 3.50041231 21.8181287"></polyline>
                        <polygon id="Fill-659" fill="#853E33" points="42.0039626 28.0517544 45.504375 28.0517544 45.504375 24.9350877 42.0039626 24.9350877"></polygon>
                        <polygon id="Fill-660" fill="#853E33" points="38.5035503 31.1687135 42.0039626 31.1687135 42.0039626 28.0517544 38.5035503 28.0517544"></polygon>
                        <polygon id="Fill-661" fill="#853E33" points="35.003138 34.2856725 38.5035503 34.2856725 38.5035503 31.1687135 35.003138 31.1687135"></polygon>
                        <polyline id="Fill-662" fill="#853E33" points="35.003138 28.0517544 35.003138 24.9350877 38.5035503 24.9350877 38.5035503 9.3505848 35.003138 9.3505848 35.003138 6.23391813 17.5017332 6.23391813 17.5017332 9.3505848 14.0013209 9.3505848 14.0013209 12.4675439 17.5017332 12.4675439 17.5017332 15.5845029 21.0021455 15.5845029 21.0021455 18.7011696 24.5022295 18.7011696 24.5022295 21.8181287 28.0026418 21.8181287 28.0026418 24.9350877 31.5030541 24.9350877 31.5030541 28.0517544 35.003138 28.0517544"></polyline>
                        <polygon id="Fill-663" fill="#853E33" points="28.0026418 40.5192982 31.5030541 40.5192982 31.5030541 37.4023392 28.0026418 37.4023392"></polygon>
                        <polygon id="Fill-664" fill="#853E33" points="24.5022295 43.6362573 28.0026418 43.6362573 28.0026418 40.5192982 24.5022295 40.5192982"></polygon>
                        <polygon id="Fill-665" fill="#853E33" points="21.0021455 46.7532164 24.5022295 46.7532164 24.5022295 43.6362573 21.0021455 43.6362573"></polygon>
                        <polygon id="Fill-666" fill="#853E33" points="17.5017332 49.869883 21.0021455 49.869883 21.0021455 46.7532164 17.5017332 46.7532164"></polygon>
                        <polygon id="Fill-667" fill="#853E33" points="14.0013209 46.7532164 17.5017332 46.7532164 17.5017332 43.6362573 14.0013209 43.6362573"></polygon>
                        <polygon id="Fill-668" fill="#853E33" points="10.5012369 43.6362573 14.0013209 43.6362573 14.0013209 40.5192982 10.5012369 40.5192982"></polygon>
                        <polyline id="Fill-669" fill="#853E33" points="10.5012369 34.2856725 28.0026418 34.2856725 28.0026418 28.0517544 24.5022295 28.0517544 24.5022295 24.9350877 21.0021455 24.9350877 21.0021455 21.8181287 17.5017332 21.8181287 17.5017332 18.7011696 14.0013209 18.7011696 14.0013209 15.5845029 7.00082463 15.5845029 7.00082463 31.1687135 10.5012369 31.1687135 10.5012369 34.2856725"></polyline>
                        <polygon id="Fill-670" fill="#853E33" points="7.00082463 40.5192982 10.5012369 40.5192982 10.5012369 37.4023392 7.00082463 37.4023392"></polygon>
                        <polygon id="Fill-671" fill="#853E33" points="3.50041231 37.4023392 7.00082463 37.4023392 7.00082463 34.2856725 3.50041231 34.2856725"></polygon>
                        <polygon id="Fill-672" fill="#853E33" points="-7.81597009e-14 34.2856725 3.50041231 34.2856725 3.50041231 31.1687135 -7.81597009e-14 31.1687135"></polygon>
                        <polyline id="Fill-673" fill="#6D5D5B" points="17.5017332 37.4023392 14.0013209 37.4023392 14.0013209 34.2856725 10.5012369 34.2856725 10.5012369 31.1687135 7.00082463 31.1687135 7.00082463 28.0517544 3.50041231 28.0517544 3.50041231 24.9350877 -7.81597009e-14 24.9350877 -7.81597009e-14 31.1687135 3.50041231 31.1687135 3.50041231 34.2856725 7.00082463 34.2856725 7.00082463 37.4023392 10.5012369 37.4023392 10.5012369 40.5192982 14.0013209 40.5192982 14.0013209 43.6362573 17.5017332 43.6362573 17.5017332 46.7532164 21.0021455 46.7532164 21.0021455 40.5192982 17.5017332 40.5192982 17.5017332 37.4023392"></polyline>
                        <polygon id="Fill-674" fill="#F5B97D" points="42.0039626 18.7011696 45.504375 18.7011696 45.504375 15.5845029 42.0039626 15.5845029"></polygon>
                        <polygon id="Fill-675" fill="#F5B97D" points="24.5022295 3.11695906 28.0026418 3.11695906 28.0026418 -5.68434189e-14 24.5022295 -5.68434189e-14"></polygon>
                        <polygon id="Fill-676" fill="#F5B97D" points="17.5017332 40.5192982 21.0021455 40.5192982 21.0021455 37.4023392 17.5017332 37.4023392"></polygon>
                        <polygon id="Fill-677" fill="#F5B97D" points="0 24.9350877 3.50041231 24.9350877 3.50041231 21.8181287 0 21.8181287"></polygon>
                    </g>
                </g>
            </g>
        </g>
    </g>
</svg>