<svg width="54" height="67" viewBox="0 0 54 67" xmlns="http://www.w3.org/2000/svg"><g fill="none" fill-rule="evenodd"><path d="M39.218 4.981V2.488h7.356V0h5c.008 1.66.016 3.32.022 4.981H39.218" fill="#2B0F0A"/><path d="M46.56 22.15c.008.72.025 1.44.025 2.161.003 4.657.002 9.314.002 13.97v1.016l-2.354.032.008.007-.011-7.52V29.5h-2.51l-2.46-.017.001-2.51h4.955v-2.411l.038-2.415 2.305.004" fill="#ECAD93"/><path d="M46.56 22.15l-2.306-.004-.072-2.463.02-2.46.073-2.52h2.353c-.009 2.152-.016 4.305-.028 6.456-.002.331-.027.661-.04.991" fill="#2B0F0A"/><path d="M44.188 41.72l-2.458-.035-.003-.004c0-.778 0-1.556.002-2.334l2.512-.011-.008-.007-.045 2.391M2.567 39.331V36.84H.208c-.178-.693-.23-13.413-.071-14.642h2.378l.07-2.548 4.825.012.027 2.466-2.552.083v2.302H2.696c-.198.937-.168 9.154.044 9.854h2.185v2.481h2.491l-.03 2.48.01-.01-4.83.013" fill="#EDAF94"/><path d="M31.96 4.966c-.802.011-1.605.03-2.407.03-3.79.004-7.582.002-11.373 0-.332 0-.663-.019-.995-.03V2.521h14.719l.056 2.445M7.41 19.662l-4.826-.012V12.31h2.308v4.815h2.45c.125.903.034 1.724.068 2.538" fill="#2B0F0A"/><path d="M39.229 4.975v2.204c-.659.195-6.359.225-7.289.04V4.947l7.289.028M17.204 4.947v2.324c-.818.138-1.638.046-2.449.062-.799.016-1.598.006-2.397.003-.826-.002-1.653-.009-2.48-.014v-2.33l7.326-.045" fill="#2B0F0A"/><path d="M9.89 7.306v2.502l-2.476.034V7.403l2.477-.097M7.411 9.844v2.477H4.876V9.896l2.535-.052M9.903 22.169h2.279v14.603c-.761.121-1.53.045-2.293.05l-.024-.025c.006-.359.016-.719.017-1.078l.006-13.535.015-.015" fill="#2B0F0A"/><path d="M17.228 24.49v4.973l-2.433.055v-4.96c.842-.024 1.637-.047 2.433-.068M34.396 17.156v2.496c-1.716.026-3.36.013-5.003.006v-2.437l5.003-.065M44.182 19.683h-4.9c-.071-.892-.028-1.711-.032-2.527 1.321.01 2.642.02 3.963.034.33.004.66.02.99.032l-.02 2.461" fill="#ECAD93"/><path d="M39.253 17.158h-4.86v-2.422h4.86v2.422M24.585 19.658c-1.628-.008-3.256-.015-4.882-.024l-.001-2.297c.672-.182 3.89-.207 4.819-.044l.064 2.365" fill="#ECAD93"/><path d="M29.397 19.656v2.448h-4.794c-.065-.811-.03-1.63-.022-2.448h4.816M19.705 19.633v4.834c-.842.07-1.66.034-2.48.026v-4.812l2.48-.048" fill="#EDAF94"/><path d="M14.735 14.665v2.444H12.32c-.156-.765-.056-1.526-.07-2.395.855-.086 1.675-.024 2.49-.044l-.005-.005M7.437 22.128l-.026-2.465h2.472l.02 2.506-.015.015-2.448-.054-.003-.002M22.074 9.837v-2.44h2.41c.165.77.062 1.53.073 2.398-.855.082-1.673.028-2.488.037l.005.005M7.386 39.329l.03-2.48-.001.002 2.45-.054.024.025v2.445c-.87.13-1.69.043-2.503.062M44.239 9.833v2.438h-2.415c-.168-.767-.063-1.528-.075-2.392.859-.084 1.68-.022 2.493-.043l-.003-.003" fill="#2B0F0A"/><path d="M22.07 9.832v2.44h-2.25c-.165-.767-.06-1.527-.073-2.377.802-.112 1.568-.032 2.327-.058l-.005-.005M27.075 12.337v-2.44h2.25c.164.766.06 1.527.073 2.377-.802.111-1.569.032-2.328.058l.005.005M14.74 14.67v-2.276h2.402c.172.713.077 1.419.07 2.235-.843.083-1.661.027-2.477.036l.005.005" fill="#2B0F0A"/><path d="M27.07 12.332v2.278h-2.407c-.172-.715-.08-1.422-.07-2.237.846-.082 1.666-.028 2.482-.036l-.005-.005M44.242 9.836v-2.44h2.248c.168.77.063 1.53.076 2.384-.801.108-1.567.038-2.327.053l.003.003" fill="#2B0F0A"/><path d="M44.24 39.336c-.837.003-1.675.008-2.511.01l.001.003c-.008-.814.051-1.631-.044-2.522h-2.38c-.012-.301-.035-.603-.037-.904-.01-2.142-.015-4.284-.022-6.427l.012-.014 2.46.017v2.317h2.51c.005 2.506.008 5.013.012 7.52" fill="#F7D1BE"/><path d="M39.261 26.972v-2.42c.847-.045 1.663-.022 2.477-.021.827 0 1.653.02 2.478.03v2.411h-4.955M44.23 31.816h-2.51V29.5h2.51v2.317" fill="#0C0C0A"/><path d="M41.727 41.681l-9.807-.008-.001-2.327-.003.003c.304-.01.606-.029.91-.032 1.351-.013 2.704-.022 4.056-.032h2.383l2.465.064-.001-.002-.002 2.334" fill="#D3462B"/><path d="M7.416 36.848H4.925v-2.48H2.74c-.212-.7-.242-8.918-.044-9.855h2.19v-2.302l2.551-.083.003.002-.056 7.327-2.467.093c.02.817-.098 1.526.108 2.321h2.39v4.98l.001-.003" fill="#F7D1BE"/><path d="M19.796 31.818h2.26v-2.216c.855-.178 1.616-.094 2.478-.071v2.263h2.48l.1 2.54h2.236v2.48H27.1v2.481h-2.482v2.311c-.876.102-1.654.097-2.537.002v-2.256h-2.318V36.87h-2.415c-.203-.855-.076-1.62-.108-2.484h2.434l.122-2.568" fill="#EDAF94"/><path d="M36.882 39.285c-1.352.01-2.705.02-4.057.032-.303.003-.605.022-.909.032v-2.488h2.464c.053-2.52.006-4.94.029-7.36l-.005.004 2.49-.007c-.005 3.262-.009 6.525-.012 9.787" fill="#ECAD93"/><path d="M36.882 39.285l.011-9.787 2.354-.002c.007 2.143.012 4.285.022 6.427.002.301.025.603.037.904l-.04 2.457-2.384.001" fill="#0A0B09"/><path d="M27.067 27.017v-2.44h7.319v2.394c-.165.02-.329.057-.494.057-2.274 0-4.55-.006-6.825-.011" fill="#0C0C0A"/><path d="M27.067 27.017c2.276.005 4.55.01 6.825.011.165 0 .33-.037.494-.057l.018 2.534.005-.005h-2.482l-2.494.011h-2.317c-.09-.872-.026-1.686-.049-2.494" fill="#ECAD93"/><path d="M31.919 39.346l.001 2.327-2.476.06v-2.387h2.475" fill="#EDAF94"/><path d="M29.433 29.511l2.494-.012v2.327h-2.494v-2.315" fill="#0C0C0A"/><path d="M7.415 36.85v-4.979h-2.39c-.206-.795-.087-1.504-.108-2.32.818-.032 1.599-.062 2.467-.094.02-2.48.037-4.903.056-7.327l2.448.054-.006 13.535c-.001.36-.011.72-.017 1.078l-2.45.054M39.265 39.284l.041-2.457h2.38c.095.89.036 1.708.044 2.522l-2.465-.065" fill="#ECAD93"/><path d="M14.74 14.67c-.815.02-1.635-.042-2.49.044.014.87-.086 1.63.07 2.395h2.415v-2.444c.816-.009 1.634.047 2.477-.036.007-.816.102-1.522-.07-2.235H14.74v2.276zm7.33-4.838c.814-.009 1.632.045 2.487-.037-.01-.868.092-1.628-.073-2.398h-2.41v2.44c-.759.026-1.525-.054-2.327.058.012.85-.092 1.61.073 2.376h2.25v-2.44zm22.172.004c-.814.02-1.634-.041-2.493.043.012.864-.093 1.625.075 2.392h2.415V9.833c.76-.015 1.526.055 2.327-.053-.013-.853.092-1.614-.076-2.384h-2.248v2.44zM27.07 12.332c.76-.026 1.526.053 2.328-.058-.013-.85.091-1.61-.074-2.376h-2.25v2.439c-.815.008-1.635-.046-2.48.036-.01.815-.103 1.522.069 2.237h2.407v-2.278zM12.235 46.673c-.008-.816.046-1.636-.036-2.48-.815-.01-1.521-.103-2.236.068v2.407h2.277c.043.754-.089 1.517.103 2.335h2.397c.032.808-.066 1.625.07 2.5h2.43c.012.815-.053 1.636.037 2.427 1.29.147 4.142.1 4.734-.068v-2.355h-4.775c-.032-.807.067-1.623-.073-2.5h-2.427c-.03-.755.09-1.519-.094-2.334h-2.407zM39.218 4.981h12.378l-.01-.006V9.86l.016-.012-2.514.005v2.509l.012-.016h-2.492v2.375l.02-.019h-2.353l-.073 2.52c-.33-.011-.66-.028-.989-.032-1.32-.013-2.642-.023-3.963-.034l.003.002v-2.422h-4.86v2.422l.003-.002c-1.643.02-3.287.042-5.003.065v2.437l.004-.002H24.58l.004.002-.064-2.365c-.93-.163-4.147-.138-4.82.044v2.297l.03.037-.026-.038-2.48.048v4.812l.003-.003-2.433.067v4.961c-.002 3.194-.005 6.387-.004 9.58 0 .046.053.091.141.236h2.295v4.834h2.511v2.476c2.478-.007 4.873.024 7.344-.02v-2.48h2.312l.048 2.488h2.498v2.386h2.444l.01.009.037 2.427h4.814v-2.44l.05-2.395h2.42v-2.412l.015-2.522 2.458.035.062 2.422-.017 9.853-.002.002-2.479.036v2.331l.016-.012h-2.494v2.54l.02-.02h-2.397v2.447l-.009.008c-3.262-.006-6.523-.01-9.784-.017-.012-.824-.022-1.649-.033-2.473.757-.022 1.522.07 2.274-.06V56.34H27.07c-.03-.76.06-1.529-.067-2.33-.845.015-1.607-.088-2.372.073v2.252h2.444v2.504H22.07c-.012-.814.044-1.632-.039-2.5h-7.294c-.02-.763.06-1.533-.062-2.351h-2.42l-.053-2.464H9.87l.013.012v-2.524H7.386l.01.01v-2.36H4.914l-.003-.002c-.001-.829-.01-1.657-.002-2.485.008-.815-.044-1.635.044-2.539h2.443v-2.32l-.01.012c.813-.019 1.632.069 2.503-.062v-2.445c.764-.005 1.532.071 2.293-.05V22.169H9.903l-.02-2.506H7.41l-.001-.001c-.034-.814.057-1.635-.069-2.538H4.892v-4.815l-.016.012h2.535V9.844l.003-.002 2.477-.034V7.306l-.013.016c.827.005 1.654.012 2.48.014.799.003 1.598.013 2.397-.003.811-.016 1.63.076 2.449-.062V4.947l-.02.02c.333.01.664.03.996.03 3.791 0 7.582.003 11.373 0 .802-.002 1.605-.02 2.407-.03l-.02-.02V7.22c.93.185 6.63.155 7.289-.04V4.975l-.011.006z" fill="#61251A"/><path d="M44.233 53.995l.017-9.853h2.296v9.853h-2.313M39.274 58.892v-2.54h2.494l-.095 2.54h-2.399" fill="#2B0F0A"/><path d="M36.897 61.319v-2.446h2.397l-.063 2.438-2.334.008M41.752 56.364v-2.33l2.479-.037v2.367h-2.479" fill="#2B0F0A"/><path d="M4.896 56.367l.022-6.483c0-.304.014-.609.022-.913l2.456.052-.01-.01.08 2.524h2.418l-.012-.012.046 2.468-2.504.038v7.29l-2.478-.03.004-.003-.044-4.921" fill="#ECAD93"/><path d="M2.567 39.331l4.829-.013v2.32H4.953c-.088.903-.036 1.723-.044 2.538-.009.828 0 1.656.002 2.485H2.633c-.175-.839-.068-1.635-.086-2.425-.02-.831-.008-1.663-.003-2.495.004-.803.015-1.607.023-2.41M7.396 49.023L4.94 48.97l-.026-2.308h2.482v2.36" fill="#2B0F0A"/><path d="M19.796 31.818c-.04.865-.08 1.67-.122 2.568H17.24c.032.865-.095 1.629.108 2.484h2.415v2.482h2.318v2.256c.883.095 1.661.1 2.537-.002v-2.31h2.483v-2.483h2.25v-2.478h-2.236l-.1-2.541h-2.481V29.53c-.862-.023-1.623-.107-2.479.07v2.217h-2.26zm24.386-12.135l.072 2.463-.038 2.415c-.825-.01-1.651-.03-2.478-.03-.813-.001-1.63-.024-2.477.02v2.421l-.002 2.51-.012.014-2.354.002-2.49.007c-.005-.845-.01-1.69-.017-2.534v-2.395h-7.319v2.44c.023.809-.041 1.623.049 2.495h2.317v2.315h2.494V29.5l2.482.001c-.023 2.42.024 4.841-.03 7.36h-2.463v2.49l.003-.004h-2.475v2.388l-.05 2.41h-2.312v2.48c-2.47.044-4.866.013-7.344.02v-2.476h-2.51v-4.834h-2.296c-.088-.145-.14-.19-.14-.235-.002-3.194.001-6.387.003-9.58l2.433-.056V24.49l-.002.003c.818.008 1.637.044 2.48-.026v-4.834l.024.038-.027-.037c1.626.009 3.254.016 4.882.024l-.004-.002c-.007.818-.043 1.637.022 2.448h4.794v-2.448l-.004.002c1.643.007 3.287.02 5.003-.006v-2.496l-.002.002h4.859l-.003-.002c.004.816-.039 1.635.032 2.527h4.9z" fill="#F7D1BE"/><path d="M29.394 44.144l.05-2.41 2.476-.061 9.807.008.003.004-.015 2.522c-.164-.019-.329-.054-.493-.055a3806.66 3806.66 0 0 0-8.726 0c-.159 0-.318.033-.556.06v2.42h-2.498l-.048-2.488" fill="#2B0F0A"/><path d="M31.94 46.632v-2.42c.238-.027.397-.06.556-.06 2.909-.003 5.817-.003 8.726 0 .164.001.33.036.493.055v2.412h-2.42l-.05 2.395-4.852.013-.01-.01v-2.382H31.94v-.003" fill="#0A0B09"/><path d="M36.888 61.327l-.016 2.468v.002l-9.79.026.007.006-.04-2.467.055-.052 9.784.017M14.738 56.34h7.294c.083.868.027 1.686.04 2.5l-.015.014-7.308-.03.003.004-.029-2.474.015-.015" fill="#2B0F0A"/><path d="M27.07 58.837l.034 2.473-.056.052-4.915-.046-.076-2.462.014-.015 5.003.001-.003-.003M17.236 51.507h4.775v2.355c-.592.168-3.444.215-4.734.068-.09-.791-.025-1.612-.036-2.428l-.005.005" fill="#2B0F0A"/><path d="M34.393 49.027c1.618-.004 3.235-.01 4.852-.013v2.44h-4.814l-.038-2.427" fill="#A0392A"/><path d="M17.24 51.502h-2.43c-.136-.874-.038-1.69-.07-2.5l-.004.004h2.427c.14.878.041 1.694.073 2.501l.005-.005M9.884 51.537H7.466l-.08-2.524h2.498v2.524M27.07 56.34h2.275v2.436c-.752.132-1.517.04-2.274.06l.003.004v-2.504l-.004.005" fill="#2B0F0A"/><path d="M27.075 56.336H24.63v-2.252c.765-.16 1.527-.058 2.372-.072.128.8.038 1.569.067 2.329l.005-.005M12.255 53.989h2.421c.121.818.041 1.588.062 2.35l-.015.015-2.474-.03.002.004L12.244 54l.011-.01" fill="#2B0F0A"/><path d="M9.918 53.993l-.046-2.468h2.33c.02.846.036 1.656.053 2.464l-.011.01-2.33-.007.004.001" fill="#2B0F0A"/><path d="M31.94 46.635h2.444v2.383H31.94v-2.383" fill="#A0392A"/><path d="M12.235 46.673h2.407c.183.815.064 1.579.094 2.333l.004-.003h-2.397c-.192-.818-.06-1.581-.103-2.335l-.005.005M12.24 46.668H9.963v-2.407c.715-.171 1.421-.079 2.236-.069.082.845.028 1.665.036 2.481l.005-.005" fill="#2B0F0A"/><path d="M7.414 61.321v-7.29l2.504-.038-.004-.001v2.336h2.337l-.002-.004c.011.814-.063 1.633.052 2.504h2.451l-.003-.004c.001.818-.04 1.638.032 2.544h4.95v2.404l-2.509.064-7.337.013.008.01v-2.531H7.42l-.006-.007" fill="#F7D1BE"/><path d="M22.133 61.316l-.081 2.506.01-.005-2.33-.045v-2.404h-4.95c-.073-.906-.032-1.726-.033-2.544l7.308.03.076 2.462" fill="#ECAD93"/><path d="M14.752 58.828h-2.45c-.116-.871-.042-1.69-.053-2.504l2.474.03.03 2.474" fill="#ECAD93"/><path d="M12.251 56.328H9.914v-2.336l2.33.007.007 2.33" fill="#EDAF94"/><path d="M9.898 66.178l-.013-2.329c2.446-.004 4.892-.01 7.337-.013l-.005 2.317c-1.524.015-3.05.036-4.573.044-.915.005-1.83-.012-2.746-.019" fill="#ECAD93"/><path d="M9.893 63.86l-2.445-.067-.028-2.465h2.473v2.531" fill="#ECAD93"/><path d="M51.586 9.86V4.975h2.29V9.86h-2.29" fill="#2B0F0A"/><path d="M49.088 12.362v-2.51l2.514-.004c-.03.791-.062 1.583-.095 2.42l-2.42.094" fill="#2B0F0A"/><path d="M46.608 14.721v-2.375H49.1v2.32l-2.492.055" fill="#2B0F0A"/></g></svg>