<svg width="49" height="61" viewBox="0 0 49 61" xmlns="http://www.w3.org/2000/svg"><g fill="none" fill-rule="evenodd"><path d="M35.586 4.52V2.257h6.676V0h4.537l.02 4.52H35.586" fill="#2B0F0A"/><path d="M42.248 20.1c.008.653.024 1.306.024 1.96.002 4.225.001 8.451.001 12.677v.921l-2.136.03.007.006-.01-6.824v-2.102h-2.277l-2.233-.016.002-2.277h4.496v-2.189l.034-2.19c.698 0 1.395.002 2.092.003" fill="#ECAD93"/><path d="M42.248 20.1c-.697-.002-1.394-.004-2.092-.004l-.065-2.235.018-2.233.066-2.287h2.135c-.007 1.953-.014 3.907-.025 5.86-.001.3-.024.599-.037.898" fill="#2B0F0A"/><path d="M40.097 37.857l-2.231-.031-.003-.004.002-2.118 2.28-.01-.008-.006-.04 2.17M2.33 35.69v-2.261H.19C.026 32.8-.02 21.258.123 20.142h2.158l.063-2.311 4.379.01v.001l.025 2.237-2.316.076v2.088H2.446c-.18.85-.152 8.307.04 8.942H4.47v2.251h2.26l-.027 2.251.009-.01c-1.46.005-2.92.008-4.382.012" fill="#EDAF94"/><path d="M29 4.506c-.727.01-1.455.027-2.183.028-3.44.003-6.88.001-10.32 0-.301 0-.602-.018-.903-.028V2.287H28.95l.05 2.22M6.724 17.841l-4.379-.01v-6.662H4.44v4.37h2.223c.114.818.03 1.564.062 2.302" fill="#2B0F0A"/><path d="M35.596 4.514v2c-.597.177-5.77.204-6.613.037V4.489l6.613.025M15.611 4.489v2.108c-.743.126-1.486.043-2.222.057-.725.015-1.45.005-2.175.003-.75-.002-1.5-.008-2.25-.013V4.53l6.647-.041" fill="#2B0F0A"/><path d="M8.975 6.63V8.9l-2.247.03V6.718l2.247-.088M6.725 8.933v2.247h-2.3v-2.2l2.3-.047M8.986 20.116h2.068v13.25c-.69.111-1.388.042-2.08.047a.61.61 0 0 0-.022-.023c.005-.326.014-.652.015-.978l.006-12.282.013-.014" fill="#2B0F0A"/><path d="M15.633 22.222v4.513l-2.207.05v-4.502l2.207-.06M31.212 15.567v2.265c-1.558.024-3.05.012-4.54.006v-2.212l4.54-.059M40.091 17.86h-4.446c-.065-.809-.026-1.552-.03-2.293l3.597.031c.299.004.598.02.897.03l-.018 2.233" fill="#ECAD93"/><path d="M35.618 15.57H31.21v-2.198h4.41v2.197M22.308 17.838l-4.43-.022v-2.084c.61-.166 3.529-.188 4.372-.04l.058 2.146" fill="#ECAD93"/><path d="M26.675 17.836v2.221h-4.35c-.059-.736-.026-1.48-.02-2.221h4.37M17.88 17.815v4.387c-.763.063-1.507.03-2.25.023V17.86l2.25-.044" fill="#EDAF94"/><path d="M13.371 13.308v2.217H11.18c-.142-.694-.052-1.385-.065-2.174.777-.077 1.521-.02 2.26-.039l-.004-.004M6.749 20.079l-.025-2.237h2.244l.018 2.274-.013.014-2.222-.049-.002-.002M20.03 8.926V6.712h2.187c.15.698.057 1.388.066 2.176-.776.074-1.518.026-2.257.033l.005.005M6.702 35.687l.028-2.25-.002.002 2.224-.049.022.023v2.218c-.79.119-1.534.04-2.272.056M40.143 8.922v2.213H37.95c-.152-.697-.057-1.386-.068-2.17.78-.077 1.524-.02 2.263-.04l-.003-.003" fill="#2B0F0A"/><path d="M20.026 8.921v2.214h-2.041c-.15-.695-.055-1.385-.067-2.156.728-.101 1.424-.03 2.113-.053l-.005-.005M24.568 11.195V8.98h2.041c.15.695.055 1.385.067 2.156-.728.101-1.424.03-2.113.053l.005.005M13.376 13.312v-2.066h2.178c.157.647.07 1.288.064 2.028-.765.076-1.507.025-2.247.034l.005.004" fill="#2B0F0A"/><path d="M24.563 11.19v2.067H22.38c-.155-.649-.071-1.29-.062-2.03.766-.074 1.51-.025 2.251-.032l-.005-.005M40.146 8.925V6.712h2.04c.152.698.057 1.388.068 2.162-.727.098-1.422.035-2.111.048l.003.003" fill="#2B0F0A"/><path d="M40.144 35.694l-2.279.01.001.002c-.007-.739.047-1.48-.04-2.29h-2.16c-.01-.272-.031-.546-.033-.819-.009-1.944-.014-3.888-.02-5.832l.011-.013 2.233.016v2.102h2.277l.01 6.824" fill="#F7D1BE"/><path d="M35.626 24.475v-2.197c.768-.04 1.51-.02 2.247-.019.75 0 1.5.018 2.25.028v2.188h-4.497M40.134 28.87h-2.277v-2.102h2.277v2.102" fill="#0C0C0A"/><path d="M37.863 37.822l-8.898-.008-.002-2.111-.002.003c.275-.01.55-.027.825-.03 1.227-.01 2.454-.02 3.68-.028l2.164-.001 2.236.059-.001-.002-.002 2.118" fill="#D3462B"/><path d="M6.73 33.436H4.469v-2.25H2.487c-.193-.636-.22-8.093-.04-8.943h1.986v-2.088l2.316-.076.002.002-.05 6.648-2.24.085c.02.741-.088 1.385.098 2.106h2.17v4.519-.003" fill="#F7D1BE"/><path d="M17.963 28.872h2.05V26.86c.777-.161 1.467-.085 2.25-.064v2.053h2.25l.091 2.306h2.029v2.249H24.59v2.252H22.34v2.097a9.93 9.93 0 0 1-2.302.001v-2.047h-2.104v-2.252h-2.191c-.185-.776-.069-1.47-.098-2.254h2.209l.11-2.33" fill="#EDAF94"/><path d="M33.467 35.648c-1.227.009-2.454.017-3.681.028-.275.003-.55.02-.825.03v-2.258h2.235c.049-2.286.006-4.483.027-6.68l-.005.005 2.26-.006c-.005 2.96-.008 5.92-.011 8.88" fill="#ECAD93"/><path d="M33.467 35.648l.01-8.88 2.136-.003c.006 1.944.011 3.888.02 5.832.002.273.022.547.034.82l-.037 2.23h-2.163" fill="#0A0B09"/><path d="M24.561 24.515v-2.214h6.64v2.172c-.148.019-.297.053-.447.053-2.064-.001-4.128-.006-6.193-.01" fill="#0C0C0A"/><path d="M24.561 24.515c2.065.005 4.13.01 6.193.01.15 0 .299-.033.448-.052l.016 2.3.005-.004-2.252-.001-2.264.01h-2.102c-.082-.79-.023-1.53-.044-2.263" fill="#ECAD93"/><path d="M28.963 35.703l.002 2.111-2.247.056v-2.167h2.245" fill="#EDAF94"/><path d="M26.707 26.778l2.264-.01v2.111h-2.264v-2.1" fill="#0C0C0A"/><path d="M6.728 33.439V28.92H4.56c-.186-.721-.078-1.365-.097-2.106l2.238-.085.051-6.648 2.222.049-.006 12.282c-.001.326-.01.652-.015.978l-2.224.049M35.63 35.647l.037-2.23h2.16c.086.808.032 1.55.04 2.289l-2.237-.06" fill="#ECAD93"/><path d="M13.376 13.312c-.74.018-1.484-.038-2.26.04.012.788-.078 1.479.064 2.173h2.191v-2.217c.74-.009 1.482.042 2.247-.034.007-.74.093-1.38-.064-2.028h-2.178v2.066zm6.65-4.39c.739-.008 1.481.04 2.257-.034-.01-.788.084-1.478-.066-2.176H20.03v2.214c-.69.023-1.385-.048-2.113.053.012.771-.083 1.46.067 2.156h2.041V8.92zm20.12.003c-.74.02-1.483-.037-2.263.04.011.784-.084 1.473.068 2.17h2.192V8.922c.69-.013 1.384.05 2.111-.048-.011-.774.084-1.464-.069-2.162h-2.04v2.213zM24.563 11.19c.69-.023 1.385.048 2.113-.053-.012-.771.083-1.46-.067-2.156h-2.041v2.214c-.74.007-1.485-.042-2.251.032-.01.74-.093 1.381.062 2.03h2.184V11.19zm-13.46 31.162c-.008-.74.041-1.485-.033-2.252-.74-.009-1.381-.093-2.03.063v2.184h2.067c.038.684-.081 1.377.093 2.118h2.175c.03.734-.06 1.475.064 2.268h2.205c.01.74-.048 1.486.034 2.203 1.17.134 3.757.091 4.295-.06v-2.138H15.64c-.029-.733.061-1.473-.066-2.27h-2.202c-.027-.684.08-1.377-.086-2.116h-2.184zM35.585 4.52H46.82l-.01-.006v4.433l.015-.011-2.281.004v2.277l.01-.014h-2.26v2.155l.017-.017h-2.135l-.066 2.287c-.299-.01-.598-.026-.897-.03-1.199-.012-2.397-.021-3.596-.03l.002.001v-2.197H31.21v2.197l.003-.002-4.54.06v2.211l.003-.002h-4.37l.003.002-.058-2.146c-.843-.148-3.762-.126-4.372.04v2.084l.025.034-.022-.035-2.25.044v4.366l.002-.003-2.207.061v4.502c-.003 2.898-.006 5.795-.004 8.693 0 .041.047.083.128.214h2.082v4.386h2.279v2.247c2.248-.007 4.422.022 6.664-.019v-2.25h2.098l.043 2.258h2.267v2.165H31.2l.009.008c.01.722.022 1.444.034 2.203h4.368v-2.215l.046-2.172h2.196v-2.189l.013-2.288 2.23.031.057 2.198-.016 8.94-.002.003-2.249.032v2.115l.015-.011h-2.263v2.305l.017-.017H33.48v2.22l-.007.007-8.879-.015-.03-2.245c.688-.02 1.382.064 2.064-.055v-2.21h-2.065c-.026-.69.056-1.387-.06-2.114-.767.013-1.458-.08-2.153.066v2.044h2.218v2.272h-4.54c-.011-.739.04-1.48-.036-2.27h-6.619c-.019-.691.054-1.39-.056-2.132h-2.196l-.048-2.236H8.957l.012.011v-2.29H6.702l.01.009v-2.141H4.459l-.002-.003c-.002-.751-.01-1.503-.003-2.255.008-.74-.04-1.483.04-2.303h2.217v-2.105l-.01.01c.739-.017 1.482.063 2.273-.056v-2.218c.692-.005 1.39.064 2.08-.046V20.116H8.986l-.018-2.274H6.724c-.031-.739.052-1.485-.062-2.304H4.439v-4.37l-.014.012h2.3V8.933l.003-.003 2.247-.03V6.63l-.011.014c.75.005 1.5.01 2.25.013.725.002 1.45.012 2.175-.003.736-.014 1.48.069 2.222-.057V4.49l-.017.017c.3.01.602.028.903.028 3.44.001 6.88.003 10.32 0 .728-.001 1.456-.018 2.183-.028l-.017-.017v2.062c.844.167 6.016.14 6.613-.037v-2l-.01.006z" fill="#898989"/><path d="M40.137 48.995l.016-8.94h2.083v8.94h-2.099M35.638 53.439v-2.305H37.9l-.087 2.305h-2.176" fill="#2B0F0A"/><path d="M33.48 55.641v-2.22h2.175l-.056 2.213-2.119.007M37.886 51.145V49.03l2.25-.032v2.147h-2.25" fill="#2B0F0A"/><path d="M4.443 51.148c.006-1.961.012-3.922.02-5.882 0-.276.012-.553.02-.83.742.017 1.485.032 2.229.048l-.01-.01.072 2.291H8.97l-.011-.011.041 2.24c-.739.01-1.477.022-2.271.034v6.615l-2.249-.028.003-.002-.04-4.465" fill="#ECAD93"/><path d="M2.33 35.69l4.38-.013v2.105H4.495c-.08.82-.032 1.564-.04 2.303-.007.752.001 1.504.003 2.255H2.389c-.159-.76-.061-1.483-.078-2.2-.017-.754-.007-1.509-.003-2.264.004-.729.014-1.458.021-2.187M6.712 44.484l-2.23-.047-.023-2.094h2.253v2.14" fill="#2B0F0A"/><path d="M17.963 28.872l-.11 2.33h-2.21c.03.785-.086 1.478.099 2.254h2.19v2.252h2.105v2.047c.8.087 1.507.091 2.302-.001v-2.097h2.252v-2.252h2.042v-2.25h-2.029c-.031-.797-.06-1.507-.09-2.305h-2.252v-2.053c-.782-.02-1.472-.097-2.249.064v2.01h-2.05zM40.091 17.86l.065 2.235-.034 2.191c-.75-.01-1.499-.027-2.249-.028-.738 0-1.479-.021-2.247.02v2.196l-.002 2.277-.011.013-2.136.002-2.259.006-.016-2.3v-2.172h-6.64v2.214c.02.734-.039 1.472.043 2.263h2.102v2.101h2.264v-2.111h2.252c-.021 2.197.022 4.394-.027 6.68h-2.235v2.258l.002-.003h-2.245v2.167l-.045 2.187h-2.098v2.25c-2.242.04-4.416.011-6.664.018v-2.247h-2.279v-4.386H13.55c-.08-.131-.128-.173-.128-.214-.002-2.898.001-5.795.004-8.693l2.207-.05v-4.513l-.002.003c.742.007 1.486.04 2.25-.023v-4.387l.022.035-.025-.034 4.43.022-.003-.002c-.006.742-.039 1.485.02 2.221h4.35v-2.221l-.003.002c1.49.006 2.982.018 4.54-.006v-2.265l-.003.002h4.41l-.003-.002c.003.74-.036 1.484.029 2.294h4.446z" fill="#F7D1BE"/><path d="M26.673 40.057l.045-2.187 2.247-.056 8.898.008.003.004-.013 2.288c-.15-.017-.299-.05-.448-.05-2.64-.003-5.278-.003-7.918 0-.144 0-.289.03-.504.054v2.196h-2.267l-.043-2.257" fill="#2B0F0A"/><path d="M28.983 42.314v-2.196c.215-.024.36-.054.504-.054 2.64-.003 5.279-.003 7.918 0 .15 0 .299.033.448.05v2.189h-2.196l-.046 2.172-4.402.012-.009-.008v-2.162h-2.217v-.003" fill="#0A0B09"/><path d="M33.473 55.649c-.006.746-.01 1.493-.015 2.239v.002c-2.961.008-5.923.015-8.884.024l.007.005-.037-2.239.05-.046 8.879.015M13.373 51.123h6.619c.076.788.025 1.53.036 2.268l-.013.014c-2.21-.01-4.421-.018-6.632-.027l.003.003-.026-2.245.013-.013" fill="#2B0F0A"/><path d="M24.564 53.39l.03 2.244-.05.046-4.46-.041-.07-2.234.014-.014 4.54.001-.004-.003M15.64 46.738h4.333v2.137c-.538.152-3.125.195-4.295.061-.082-.717-.023-1.462-.034-2.203l-.004.005" fill="#2B0F0A"/><path d="M31.209 44.487l4.402-.012v2.215h-4.368l-.034-2.203" fill="#A0392A"/><path d="M15.644 46.733H13.44c-.124-.793-.035-1.534-.064-2.268l-.003.003h2.202c.127.797.037 1.537.066 2.27l.004-.005M8.969 46.765H6.774l-.072-2.29h2.267v2.29M24.563 51.124h2.065v2.21c-.682.12-1.376.035-2.064.055l.003.003.001-2.272-.005.004M24.568 51.12H22.35v-2.044c.695-.146 1.386-.053 2.153-.066.116.727.034 1.424.06 2.114l.005-.004M11.12 48.99h2.197c.11.742.037 1.44.056 2.133l-.013.013-2.246-.027.003.004-.007-2.114.01-.009" fill="#2B0F0A"/><path d="M9 48.994l-.042-2.24h2.115l.048 2.236-.011.01-2.114-.008.003.002" fill="#2B0F0A"/><path d="M28.983 42.317H31.2v2.162h-2.217v-2.162" fill="#A0392A"/><path d="M11.102 42.352h2.184c.167.74.059 1.432.086 2.116l.003-.003H11.2c-.174-.741-.055-1.434-.093-2.118l-.005.005" fill="#2B0F0A"/><path d="M11.107 42.347H9.04v-2.184c.649-.156 1.29-.072 2.03-.063.074.767.025 1.511.032 2.252l.005-.005" fill="#2B0F0A"/><path d="M6.728 55.643v-6.615c.794-.012 1.532-.024 2.271-.034l-.003-.002v2.12h2.12l-.002-.003c.011.739-.056 1.481.048 2.272h2.224l-.003-.003c.002.742-.036 1.486.03 2.308h4.492v2.182l-2.277.057-6.658.012.007.01v-2.298H6.733l-.005-.006" fill="#F7D1BE"/><path d="M20.083 55.639l-.073 2.274.01-.005-2.115-.04v-2.182h-4.492c-.066-.822-.028-1.566-.03-2.308l6.632.027.068 2.234" fill="#ECAD93"/><path d="M13.386 53.38h-2.224c-.104-.79-.037-1.532-.048-2.271l2.246.027.026 2.245" fill="#ECAD93"/><path d="M11.117 51.113h-2.12v-2.12l2.113.006.007 2.114" fill="#EDAF94"/><path d="M8.982 60.05l-.012-2.113 6.658-.012-.005 2.103c-1.383.014-2.767.033-4.15.04-.83.004-1.66-.011-2.491-.017" fill="#ECAD93"/><path d="M8.977 57.946l-2.218-.06-.026-2.237h2.244v2.297" fill="#ECAD93"/><path d="M46.81 8.947V4.514h2.078v4.433H46.81" fill="#2B0F0A"/><path d="M44.543 11.217V8.94l2.281-.004-.086 2.196-2.195.085" fill="#2B0F0A"/><path d="M42.293 13.358v-2.155h2.26v2.105l-2.26.05" fill="#2B0F0A"/></g></svg>